<?xml version="1.0" encoding="UTF-8" standalone="no"?>
<svg
   xml:space="preserve"
   enable-background="new -176.966 -215.01 408.272 494.945"
   viewBox="-176.966 -215.01 649.99999 649.99999"
   height="650"
   width="650"
   y="0px"
   x="0px"
   id="Ebene_1"
   version="1.1"
   sodipodi:docname="20221123153810!Flag_of_Canton_of_Basel_Land.svg"
   inkscape:version="1.2.1 (9c6d41e410, 2022-07-14)"
   xmlns:inkscape="http://www.inkscape.org/namespaces/inkscape"
   xmlns:sodipodi="http://sodipodi.sourceforge.net/DTD/sodipodi-0.dtd"
   xmlns="http://www.w3.org/2000/svg"
   xmlns:svg="http://www.w3.org/2000/svg"
   xmlns:rdf="http://www.w3.org/1999/02/22-rdf-syntax-ns#"
   xmlns:cc="http://creativecommons.org/ns#"
   xmlns:dc="http://purl.org/dc/elements/1.1/"><sodipodi:namedview
   id="namedview1225"
   pagecolor="#ffffff"
   bordercolor="#000000"
   borderopacity="0.25"
   inkscape:showpageshadow="2"
   inkscape:pageopacity="0.0"
   inkscape:pagecheckerboard="0"
   inkscape:deskcolor="#d1d1d1"
   showgrid="false"
   inkscape:zoom="0.64384615"
   inkscape:cx="-85.424134"
   inkscape:cy="352.5687"
   inkscape:window-width="1920"
   inkscape:window-height="1017"
   inkscape:window-x="-8"
   inkscape:window-y="-8"
   inkscape:window-maximized="1"
   inkscape:current-layer="Ebene_1" /><metadata
   id="metadata4617"><rdf:RDF><cc:Work
       rdf:about=""><dc:format>image/svg+xml</dc:format><dc:type
         rdf:resource="http://purl.org/dc/dcmitype/StillImage" /><dc:title /></cc:Work></rdf:RDF></metadata><defs
   id="defs4615" />

<rect
   style="fill:#ffffff;fill-opacity:1;stroke:none;stroke-width:1.2301;stroke-linecap:round;stroke-linejoin:miter;stroke-miterlimit:4;stroke-dasharray:none;stroke-dashoffset:0;stroke-opacity:1"
   id="rect4523"
   width="650"
   height="650"
   x="-176.966"
   y="-215.00999" /><g
   id="g5405"><path
     id="path6434"
     d="m 138.4504,-163.14208 a 22.051837,22.127499 0 0 0 -22.05326,22.12661 22.051837,22.127499 0 0 0 2.47092,10.16138 c -8.36526,4.21436 -16.12053,8.74903 -23.258643,13.65995 a 22.051837,22.127499 0 0 0 -17.67129,-8.93097 22.051837,22.127499 0 0 0 -22.050937,22.1266 22.051837,22.127499 0 0 0 7.658017,16.7476 c -5.255427,6.84634 -9.810827,14.23294 -13.640997,22.245 a 22.051837,22.127499 0 0 0 -10.37188,-2.61173 22.051837,22.127499 0 0 0 -22.05326,22.128918 22.051837,22.127499 0 0 0 19.88542,22.019812 c -0.23444,1.463095 -0.46716,2.92852 -0.67095,4.422543 C 8.21026,189.76332 14.45746,242.41026 -13.22243,359.96139 10.00299,352.07788 29.50245,291.83636 50.84816,257.54663 L 82.137307,384.63008 115.66141,253.06141 c 20.53519,36.82906 32.01715,97.28049 61.83566,109.89012 -17.5283,-106.15591 -34.10626,-223.70878 -43.95382,-348.358775 -2.92561,-37.032289 4.41253,-48.688363 16.38955,-69.523185 12.30638,-21.40775 80.07499,-44.74957 89.39759,13.45566 7.59694,47.431091 -44.26557,45.961126 -58.10842,17.943183 l -25.32933,20.183476 c 20.40346,16.527765 29.39707,42.768469 75.98334,33.24678 a 22.051837,22.127499 0 0 0 21.21341,16.102211 22.051837,22.127499 0 0 0 22.05094,-22.128928 22.051837,22.127499 0 0 0 -5.8534,-14.980907 c 4.6061,-7.170272 8.45023,-16.233543 11.49628,-26.298412 a 22.051837,22.127499 0 0 0 7.23001,1.248999 22.051837,22.127499 0 0 0 22.05095,-22.12661 22.051837,22.127499 0 0 0 -22.05095,-22.128932 22.051837,22.127499 0 0 0 -1.01798,0.0371 c -0.49309,-9.05433 -2.35033,-17.87856 -5.88118,-26.24733 a 22.051837,22.127499 0 0 0 10.51764,-18.84162 22.051837,22.127499 0 0 0 -22.05095,-22.1266 22.051837,22.127499 0 0 0 -16.16283,7.11552 c -7.20139,-5.37534 -15.18427,-9.93315 -23.58717,-13.65066 a 22.051837,22.127499 0 0 0 1.02261,-6.64889 22.051837,22.127499 0 0 0 -22.05094,-22.12661 22.051837,22.127499 0 0 0 -21.54658,17.47656 c -3.96231,-0.40995 -7.89332,-0.64808 -11.75772,-0.69646 -5.29639,-0.0663 -10.45988,0.22754 -15.42711,0.85201 a 22.051837,22.127499 0 0 0 -21.62061,-17.87125 z"
     style="fill:#e8423f;fill-opacity:1;stroke:#0b0000;stroke-width:4;stroke-linecap:round;stroke-linejoin:miter;stroke-miterlimit:4;stroke-dasharray:none;stroke-dashoffset:0;stroke-opacity:1" /><path
     id="path6514"
     d="m 82.137317,384.63008 c 0,0 -0.98816,-200.09938 -2.23458,-299.767725 -0.28682,-22.935258 1.03109,-45.121847 2.23498,-68.027081 0.98964,-18.829158 -4.5946,-40.141113 8.19493,-69.522174 6.54009,-15.02436 13.562593,-24.09186 23.839813,-32.89222 11.6583,-9.98297 27.03892,-17.14571 40.97469,-20.9314 11.04975,-3.0017 30.42732,-5.6226 41.71967,-3.73776 12.7382,2.12617 24.12243,5.00089 35.01472,11.96081 9.63775,6.15831 18.21753,16.93071 23.83981,26.91181 4.98458,8.849 8.33615,18.99072 8.19494,29.154459 0.93701,32.164707 -19.24931,43.655788 -34.26973,44.056178 -16.07027,0.428375 -19.34577,-4.655067 -28.30977,-7.62454"
     style="fill:none;fill-rule:evenodd;stroke:#000000;stroke-width:4;stroke-linecap:butt;stroke-linejoin:miter;stroke-miterlimit:4;stroke-dasharray:none;stroke-opacity:1" /><rect
     y="13.437207"
     x="5.2351599"
     height="72.757988"
     width="154.19331"
     id="rect6487-3"
     style="fill:#e8423f;fill-opacity:1;stroke:#000000;stroke-width:4;stroke-linecap:round;stroke-linejoin:miter;stroke-miterlimit:4;stroke-dasharray:none;stroke-dashoffset:0;stroke-opacity:1" /><rect
     y="31.547031"
     x="-12.146188"
     height="36.538342"
     width="188.95602"
     id="rect6487"
     style="fill:#e8423f;fill-opacity:1;stroke:#000000;stroke-width:4;stroke-linecap:round;stroke-linejoin:miter;stroke-miterlimit:4;stroke-dasharray:none;stroke-dashoffset:0;stroke-opacity:1" /></g></svg>
