<?xml version="1.0" encoding="UTF-8" standalone="no"?>
<!-- Created with Inkscape (http://www.inkscape.org/) -->
<svg
   xmlns:dc="http://purl.org/dc/elements/1.1/"
   xmlns:cc="http://web.resource.org/cc/"
   xmlns:rdf="http://www.w3.org/1999/02/22-rdf-syntax-ns#"
   xmlns:svg="http://www.w3.org/2000/svg"
   xmlns="http://www.w3.org/2000/svg"
   xmlns:sodipodi="http://sodipodi.sourceforge.net/DTD/sodipodi-0.dtd"
   xmlns:inkscape="http://www.inkscape.org/namespaces/inkscape"
   width="1203.588"
   height="797.19165"
   id="svg2"
   sodipodi:version="0.32"
   inkscape:version="0.45.1"
   sodipodi:docbase="C:\Users\Jany\Documents\aaaOuiqui\Drapeaux"
   sodipodi:docname="Drapeau fr département Cantal.svg"
   inkscape:output_extension="org.inkscape.output.svg.inkscape"
   version="1.0">
  <defs
     id="defs4" />
  <sodipodi:namedview
     id="base"
     pagecolor="#ffffff"
     bordercolor="#666666"
     borderopacity="1.0"
     inkscape:pageopacity="0.0"
     inkscape:pageshadow="2"
     inkscape:zoom="0.9899495"
     inkscape:cx="604.78382"
     inkscape:cy="536.34644"
     inkscape:document-units="px"
     inkscape:current-layer="layer1"
     inkscape:window-width="1152"
     inkscape:window-height="814"
     inkscape:window-x="-8"
     inkscape:window-y="-8"
     showguides="true"
     inkscape:guide-bbox="true">
    <sodipodi:guide
       orientation="vertical"
       position="-745.49257"
       id="guide28349" />
  </sodipodi:namedview>
  <metadata
     id="metadata7">
    <rdf:RDF>
      <cc:Work
         rdf:about="">
        <dc:format>image/svg+xml</dc:format>
        <dc:type
           rdf:resource="http://purl.org/dc/dcmitype/StillImage" />
      </cc:Work>
    </rdf:RDF>
  </metadata>
  <g
     inkscape:label="Calque 1"
     inkscape:groupmode="layer"
     id="layer1"
     transform="translate(1126.0609,-137.47842)"
     style="display:inline">
    <g
       transform="translate(-1022.3356,584.65272)"
       id="g22331"
       style="display:inline" />
    <path
       style="fill:none;fill-opacity:0.75;fill-rule:evenodd;stroke:none;stroke-width:3;stroke-linecap:butt;stroke-linejoin:miter;stroke-miterlimit:4;stroke-dasharray:none;stroke-opacity:1;display:inline"
       d="M 95.2819,215.06078 L 95.2819,-235.96609"
       id="path11207" />
    <rect
       transform="matrix(0,-1,1,0,0,0)"
       y="-44.954388"
       x="557.12079"
       height="0"
       width="1.5233166"
       id="rect12745"
       style="fill:#ffffff;fill-opacity:1;fill-rule:evenodd;stroke:none;stroke-width:1.52331662;stroke-linecap:round;stroke-linejoin:round;stroke-miterlimit:4;stroke-dasharray:none;stroke-dashoffset:0;stroke-opacity:1" />
    <path
       style="fill:#fcef3c;fill-opacity:1;stroke:#000000;stroke-width:0.5;stroke-miterlimit:4;stroke-dasharray:none;stroke-opacity:1"
       d="M -1125.856,137.67842 L 77.322109,137.67842 L 77.322109,934.47007 L -1125.856,934.47007 L -1125.856,137.67842 z "
       id="path10799"
       sodipodi:nodetypes="ccccc" />
    <path
       style="fill:none;fill-rule:evenodd;stroke:#000000;stroke-width:0.98280448px;stroke-linecap:butt;stroke-linejoin:miter;stroke-opacity:1"
       d="M 212.19321,1320.0324 L 212.19321,1320.0324 z "
       id="path30950" />
    <path
       d="M -760.80515,293.09962 C -760.80515,300.92285 -759.38675,651.13394 -759.38675,659.23432 C -758.25086,712.59431 -660.56053,711.72821 -660.84269,658.36239 C -658.85377,650.25616 -660.84269,575.42426 -660.84269,568.46148 L -580.83565,568.46148 C -580.83565,577.74519 -583.38994,785.69402 -583.38994,793.51155 C -583.38994,850.06989 -469.54177,851.80242 -469.54177,795.24958 C -469.54177,785.11662 -469.82463,576.00166 -469.82463,569.03854 L -394.06499,567.8779 C -394.06499,567.8779 -394.06499,648.51263 -394.06499,657.49045 C -392.9291,716.37006 -284.58634,714.63238 -286.0044,658.36239 C -286.28691,648.51263 -286.0044,300.0626 -286.0044,291.93915 L -760.80515,292.0895 L -760.80515,292.0895 L -760.80515,293.09962 z "
       id="path2314"
       sodipodi:nodetypes="ccccccccccccccc"
       style="fill:#e20909;fill-opacity:1;fill-rule:evenodd;stroke:none;stroke-width:1pt;stroke-linecap:butt;stroke-linejoin:miter;stroke-opacity:0.54779998" />
    <path
       d="M 124.58168 29.434418 A 11.565937 11.235485 0 1 1  101.44981,29.434418 A 11.565937 11.235485 0 1 1  124.58168 29.434418 z"
       id="path2322"
       sodipodi:cx="113.01575"
       sodipodi:cy="29.434418"
       sodipodi:rx="11.565937"
       sodipodi:ry="11.235485"
       sodipodi:type="arc"
       style="fill:none;fill-opacity:1;fill-rule:evenodd;stroke:#5ab532;stroke-width:5.82876444;stroke-linecap:butt;stroke-linejoin:miter;stroke-miterlimit:4;stroke-dasharray:none;stroke-opacity:1"
       transform="matrix(3.0931929,0,0,3.0830816,-1114.3029,152.40087)" />
    <path
       d="M 124.58168 29.434418 A 11.565937 11.235485 0 1 1  101.44981,29.434418 A 11.565937 11.235485 0 1 1  124.58168 29.434418 z"
       id="path2323"
       sodipodi:cx="113.01575"
       sodipodi:cy="29.434418"
       sodipodi:rx="11.565937"
       sodipodi:ry="11.235485"
       sodipodi:type="arc"
       style="fill:none;fill-opacity:1;fill-rule:evenodd;stroke:#5ab532;stroke-width:5.82876444;stroke-linecap:butt;stroke-linejoin:miter;stroke-miterlimit:4;stroke-dasharray:none;stroke-opacity:1"
       transform="matrix(3.0931929,0,0,3.0830816,-874.5837,152.40087)" />
    <path
       d="M 124.58168 29.434418 A 11.565937 11.235485 0 1 1  101.44981,29.434418 A 11.565937 11.235485 0 1 1  124.58168 29.434418 z"
       id="path2324"
       sodipodi:cx="113.01575"
       sodipodi:cy="29.434418"
       sodipodi:rx="11.565937"
       sodipodi:ry="11.235485"
       sodipodi:type="arc"
       style="fill:none;fill-opacity:1;fill-rule:evenodd;stroke:#5ab532;stroke-width:5.82876444;stroke-linecap:butt;stroke-linejoin:miter;stroke-miterlimit:4;stroke-dasharray:none;stroke-opacity:1"
       transform="matrix(3.0931929,0,0,3.0830816,-634.86449,152.40087)" />
    <path
       d="M -766.04444,292.14153 L -766.04444,292.14153 L -766.04444,292.14153 L -766.04444,292.14153 L -765.66913,663.43703 C -764.53668,715.65838 -661.56635,715.66353 -661.84749,663.43703 C -659.86578,655.50368 -661.84749,579.03136 -661.84749,572.21706 L -581.52861,572.21706 C -581.52861,581.30245 -581.52861,788.2728 -581.52861,795.92295 C -576.33926,855.57071 -477.23749,855.11807 -471.0102,797.62421 C -471.0102,787.70778 -471.0102,579.03102 -471.0102,572.21706 L -392.29841,572.21706 C -392.29841,572.21706 -392.29841,654.65064 -392.29841,663.43703 C -391.16665,721.06012 -287.59869,718.50652 -289.01125,663.43703 C -289.29307,653.79726 -284.98214,298.9558 -284.98214,291.00602"
       id="path2325"
       sodipodi:nodetypes="ccccccccccccccc"
       style="font-size:12px;fill:none;fill-rule:evenodd;stroke:#5ab532;stroke-width:18;stroke-opacity:1;fill-opacity:1;stroke-miterlimit:4;stroke-dasharray:none" />
    <g
       style="fill:#2b5df2;fill-opacity:1"
       id="g9824"
       transform="matrix(0.2978325,0,0,0.2978325,-619.8055,425.15272)" />
    <g
       id="g22285">
      <path
         d="M -524.19326,620.69873 C -524.19326,620.69873 -425.23923,583.46407 -425.23923,488.83566 C -425.23923,394.20725 -425.23923,403.12466 -425.23923,403.12466 L -623.1473,403.12466 L -623.1473,488.83566 C -623.1473,583.46407 -524.19326,620.69873 -524.19326,620.69873 z "
         style="fill:#2b5df2;fill-opacity:1;fill-rule:evenodd;stroke:#000000;stroke-width:0.50000006;stroke-linecap:butt;stroke-linejoin:miter;stroke-miterlimit:4;stroke-dasharray:none;stroke-opacity:1"
         id="path9822" />
      <path
         d="M -524.26693,621.22493 C -524.26693,621.22493 -425.31289,583.99027 -425.31289,489.36186 C -425.31289,394.73346 -425.31289,403.65086 -425.31289,403.65086 L -623.22096,403.65086 L -623.22096,489.36186 C -623.22096,583.99027 -524.26693,621.22493 -524.26693,621.22493 z "
         style="fill:#2b5df2;fill-opacity:1;fill-rule:evenodd;stroke:#000000;stroke-width:0.50000006;stroke-linecap:butt;stroke-linejoin:miter;stroke-miterlimit:4;stroke-dasharray:none;stroke-opacity:1"
         id="path9828" />
      <path
         d="M -524.26693,621.22502 C -524.26693,621.22502 -623.22096,583.99034 -623.22096,489.3619 C -623.22096,394.73346 -623.22096,403.65087 -623.22096,403.65087 L -425.3129,403.65087 L -425.3129,489.3619 C -425.3129,583.99034 -524.26693,621.22502 -524.26693,621.22502 z "
         style="fill:#2b5df2;fill-opacity:1;fill-rule:evenodd;stroke:#000000;stroke-width:0.50000006;stroke-linecap:butt;stroke-linejoin:miter;stroke-miterlimit:4;stroke-dasharray:none;stroke-opacity:1"
         id="path9832" />
      <path
         d="M -623.18778,437.06126 L -472.22565,588.0234 C -461.87856,578.73793 -451.7491,567.33849 -443.61339,553.65568 L -592.74987,404.5192 L -623.18778,404.5192 L -623.18778,437.06126 z "
         style="fill:#fcef3c;fill-opacity:1;fill-rule:evenodd;stroke:#000000;stroke-width:0.5;stroke-linecap:butt;stroke-linejoin:miter;stroke-miterlimit:4;stroke-dasharray:none;stroke-opacity:1"
         id="path14818" />
      <path
         d="M -542.12375,413.74169 L -522.81516,439.53683 L -503.49845,413.74169 L -522.81516,413.74169 L -542.12375,413.74169 z "
         style="fill:#ffffff;fill-opacity:1;fill-rule:evenodd;stroke:#000000;stroke-width:0.49999994;stroke-linecap:butt;stroke-linejoin:miter;stroke-miterlimit:4;stroke-dasharray:none;stroke-opacity:1"
         id="path1900" />
      <path
         d="M -524.61313,413.8741 C -528.95663,417.17972 -533.04487,424.57096 -533.81761,426.79747 C -546.64771,428.38933 -550.49806,437.36192 -542.70408,440.52469 C -542.51931,439.52482 -533.57826,430.89233 -532.534,430.56779 C -533.77878,431.02833 -542.72301,439.62259 -542.67758,440.54235 C -544.46722,447.11847 -540.61559,449.76177 -535.5313,449.32282 C -534.71125,445.24941 -530.57937,436.55411 -528.63144,434.39934 C -530.53578,436.71202 -534.75069,445.30376 -535.54897,449.48183 C -532.74019,455.56598 -528.97317,457.27225 -522.9171,453.44806 L -522.8111,435.92524 L -522.7051,453.44806 C -516.64903,457.27225 -512.89085,455.56598 -510.08207,449.48183 C -511.09733,445.73771 -515.28824,437.11565 -516.99076,434.39934 C -515.64706,436.60146 -511.55688,444.79536 -510.0909,449.32282 C -505.00661,449.76177 -501.15498,447.11847 -502.94462,440.54235 C -503.23394,438.56422 -512.35695,430.25331 -513.09703,430.39304 C -511.91024,430.26307 -502.82352,438.92951 -502.91812,440.52469 C -495.12414,437.36192 -498.97449,428.38933 -511.80459,426.79747 C -512.57733,424.57096 -516.50848,416.94409 -520.85198,413.63847 C -520.85198,413.63847 -522.16421,412.48013 -522.8111,412.77875 L -524.61313,413.8741 z "
         style="fill:#ffffff;fill-opacity:1;fill-rule:evenodd;stroke:#000000;stroke-width:0.49999994;stroke-linecap:butt;stroke-linejoin:miter;stroke-miterlimit:4;stroke-dasharray:none;stroke-opacity:1"
         id="path2792" />
      <path
         d="M -531.92235,428.69032 C -525.38304,431.9463 -519.40361,431.28317 -513.69985,428.69032"
         style="fill:none;fill-rule:evenodd;stroke:#000000;stroke-width:0.49999994;stroke-linecap:butt;stroke-linejoin:miter;stroke-miterlimit:4;stroke-dasharray:none;stroke-opacity:1"
         id="path3686" />
      <path
         d="M -538.52015,434.65976 C -528.46636,445.3141 -517.99366,445.78182 -507.10205,434.65976"
         style="fill:none;fill-rule:evenodd;stroke:#000000;stroke-width:0.49999994;stroke-linecap:butt;stroke-linejoin:miter;stroke-miterlimit:4;stroke-dasharray:none;stroke-opacity:1"
         id="path4573" />
      <path
         d="M -476.91109,413.74169 L -457.6025,439.53683 L -438.28579,413.74169 L -457.6025,413.74169 L -476.91109,413.74169 z "
         style="fill:#ffffff;fill-opacity:1;fill-rule:evenodd;stroke:#000000;stroke-width:0.49999994;stroke-linecap:butt;stroke-linejoin:miter;stroke-miterlimit:4;stroke-dasharray:none;stroke-opacity:1"
         id="path20192" />
      <path
         d="M -459.40047,413.8741 C -463.74397,417.17972 -467.83221,424.57096 -468.60495,426.79747 C -481.43505,428.38933 -485.2854,437.36192 -477.49142,440.52469 C -477.30665,439.52482 -468.3656,430.89233 -467.32134,430.56779 C -468.56612,431.02833 -477.51035,439.62259 -477.46492,440.54235 C -479.25456,447.11847 -475.40293,449.76177 -470.31864,449.32282 C -469.49859,445.24941 -465.36671,436.55411 -463.41878,434.39934 C -465.32312,436.71202 -469.53803,445.30376 -470.33631,449.48183 C -467.52753,455.56598 -463.76051,457.27225 -457.70444,453.44806 L -457.59844,435.92524 L -457.49244,453.44806 C -451.43637,457.27225 -447.67819,455.56598 -444.86941,449.48183 C -445.88467,445.73771 -450.07558,437.11565 -451.7781,434.39934 C -450.4344,436.60146 -446.34422,444.79536 -444.87824,449.32282 C -439.79395,449.76177 -435.94232,447.11847 -437.73196,440.54235 C -438.02128,438.56422 -447.14429,430.25331 -447.88437,430.39304 C -446.69758,430.26307 -437.61086,438.92951 -437.70546,440.52469 C -429.91148,437.36192 -433.76183,428.38933 -446.59193,426.79747 C -447.36467,424.57096 -451.29582,416.94409 -455.63932,413.63847 C -455.63932,413.63847 -456.95155,412.48013 -457.59844,412.77875 L -459.40047,413.8741 z "
         style="fill:#ffffff;fill-opacity:1;fill-rule:evenodd;stroke:#000000;stroke-width:0.49999994;stroke-linecap:butt;stroke-linejoin:miter;stroke-miterlimit:4;stroke-dasharray:none;stroke-opacity:1"
         id="path20194" />
      <path
         d="M -466.70969,428.69032 C -460.17038,431.9463 -454.19095,431.28317 -448.48719,428.69032"
         style="fill:none;fill-rule:evenodd;stroke:#000000;stroke-width:0.49999994;stroke-linecap:butt;stroke-linejoin:miter;stroke-miterlimit:4;stroke-dasharray:none;stroke-opacity:1"
         id="path20196" />
      <path
         d="M -473.30749,434.65976 C -463.2537,445.3141 -452.781,445.78182 -441.88939,434.65976"
         style="fill:none;fill-rule:evenodd;stroke:#000000;stroke-width:0.49999994;stroke-linecap:butt;stroke-linejoin:miter;stroke-miterlimit:4;stroke-dasharray:none;stroke-opacity:1"
         id="path20198" />
      <path
         d="M -476.91109,472.18563 L -457.6025,497.98077 L -438.28579,472.18563 L -457.6025,472.18563 L -476.91109,472.18563 z "
         style="fill:#ffffff;fill-opacity:1;fill-rule:evenodd;stroke:#000000;stroke-width:0.49999994;stroke-linecap:butt;stroke-linejoin:miter;stroke-miterlimit:4;stroke-dasharray:none;stroke-opacity:1"
         id="path20212" />
      <path
         d="M -459.40047,472.31804 C -463.74397,475.62366 -467.83221,483.0149 -468.60495,485.24141 C -481.43505,486.83327 -485.2854,495.80586 -477.49142,498.96863 C -477.30665,497.96876 -468.3656,489.33627 -467.32134,489.01173 C -468.56612,489.47227 -477.51035,498.06653 -477.46492,498.98629 C -479.25456,505.56241 -475.40293,508.20571 -470.31864,507.76676 C -469.49859,503.69335 -465.36671,494.99805 -463.41878,492.84328 C -465.32312,495.15596 -469.53803,503.7477 -470.33631,507.92577 C -467.52753,514.00992 -463.76051,515.71619 -457.70444,511.892 L -457.59844,494.36918 L -457.49244,511.892 C -451.43637,515.71619 -447.67819,514.00992 -444.86941,507.92577 C -445.88467,504.18165 -450.07558,495.55959 -451.7781,492.84328 C -450.4344,495.0454 -446.34422,503.2393 -444.87824,507.76676 C -439.79395,508.20571 -435.94232,505.56241 -437.73196,498.98629 C -438.02128,497.00816 -447.14429,488.69725 -447.88437,488.83698 C -446.69758,488.70701 -437.61086,497.37345 -437.70546,498.96863 C -429.91148,495.80586 -433.76183,486.83327 -446.59193,485.24141 C -447.36467,483.0149 -451.29582,475.38803 -455.63932,472.08241 C -455.63932,472.08241 -456.95155,470.92407 -457.59844,471.22269 L -459.40047,472.31804 z "
         style="fill:#ffffff;fill-opacity:1;fill-rule:evenodd;stroke:#000000;stroke-width:0.49999994;stroke-linecap:butt;stroke-linejoin:miter;stroke-miterlimit:4;stroke-dasharray:none;stroke-opacity:1"
         id="path20214" />
      <path
         d="M -466.70969,487.13426 C -460.17038,490.39024 -454.19095,489.72711 -448.48719,487.13426"
         style="fill:none;fill-rule:evenodd;stroke:#000000;stroke-width:0.49999994;stroke-linecap:butt;stroke-linejoin:miter;stroke-miterlimit:4;stroke-dasharray:none;stroke-opacity:1"
         id="path20216" />
      <path
         d="M -473.30749,493.1037 C -463.2537,503.75804 -452.781,504.22576 -441.88939,493.1037"
         style="fill:none;fill-rule:evenodd;stroke:#000000;stroke-width:0.49999994;stroke-linecap:butt;stroke-linejoin:miter;stroke-miterlimit:4;stroke-dasharray:none;stroke-opacity:1"
         id="path20218" />
      <path
         d="M -612.95817,491.3449 L -593.64958,517.14004 L -574.33287,491.3449 L -593.64958,491.3449 L -612.95817,491.3449 z "
         style="fill:#ffffff;fill-opacity:1;fill-rule:evenodd;stroke:#000000;stroke-width:0.49999994;stroke-linecap:butt;stroke-linejoin:miter;stroke-miterlimit:4;stroke-dasharray:none;stroke-opacity:1"
         id="path20222" />
      <path
         d="M -595.44755,491.47731 C -599.79105,494.78293 -603.87929,502.17417 -604.65203,504.40068 C -617.48213,505.99254 -621.33248,514.96513 -613.5385,518.1279 C -613.35373,517.12803 -604.41268,508.49554 -603.36842,508.171 C -604.6132,508.63154 -613.55743,517.2258 -613.512,518.14556 C -615.30164,524.72168 -611.45001,527.36498 -606.36572,526.92603 C -605.54567,522.85262 -601.41379,514.15732 -599.46586,512.00255 C -601.3702,514.31523 -605.58511,522.90697 -606.38339,527.08504 C -603.57461,533.16919 -599.80759,534.87546 -593.75152,531.05127 L -593.64552,513.52845 L -593.53952,531.05127 C -587.48345,534.87546 -583.72527,533.16919 -580.91649,527.08504 C -581.93175,523.34092 -586.12266,514.71886 -587.82518,512.00255 C -586.48148,514.20467 -582.3913,522.39857 -580.92532,526.92603 C -575.84103,527.36498 -571.9894,524.72168 -573.77904,518.14556 C -574.06836,516.16743 -583.19137,507.85652 -583.93145,507.99625 C -582.74466,507.86628 -573.65794,516.53272 -573.75254,518.1279 C -565.95856,514.96513 -569.80891,505.99254 -582.63901,504.40068 C -583.41175,502.17417 -587.3429,494.5473 -591.6864,491.24168 C -591.6864,491.24168 -592.99863,490.08334 -593.64552,490.38196 L -595.44755,491.47731 z "
         style="fill:#ffffff;fill-opacity:1;fill-rule:evenodd;stroke:#000000;stroke-width:0.49999994;stroke-linecap:butt;stroke-linejoin:miter;stroke-miterlimit:4;stroke-dasharray:none;stroke-opacity:1"
         id="path20224" />
      <path
         d="M -602.75677,506.29353 C -596.21746,509.54951 -590.23803,508.88638 -584.53427,506.29353"
         style="fill:none;fill-rule:evenodd;stroke:#000000;stroke-width:0.49999994;stroke-linecap:butt;stroke-linejoin:miter;stroke-miterlimit:4;stroke-dasharray:none;stroke-opacity:1"
         id="path20226" />
      <path
         d="M -609.35457,512.26297 C -599.30078,522.91731 -588.82808,523.38503 -577.93647,512.26297"
         style="fill:none;fill-rule:evenodd;stroke:#000000;stroke-width:0.49999994;stroke-linecap:butt;stroke-linejoin:miter;stroke-miterlimit:4;stroke-dasharray:none;stroke-opacity:1"
         id="path20228" />
      <path
         d="M -583.1627,537.16243 L -563.85411,562.95757 L -544.5374,537.16243 L -563.85411,537.16243 L -583.1627,537.16243 z "
         style="fill:#ffffff;fill-opacity:1;fill-rule:evenodd;stroke:#000000;stroke-width:0.49999994;stroke-linecap:butt;stroke-linejoin:miter;stroke-miterlimit:4;stroke-dasharray:none;stroke-opacity:1"
         id="path20232" />
      <path
         d="M -565.65208,537.29484 C -569.99558,540.60046 -574.08382,547.9917 -574.85656,550.21821 C -587.68666,551.81007 -591.53701,560.78266 -583.74303,563.94543 C -583.55826,562.94556 -574.61721,554.31307 -573.57295,553.98853 C -574.81773,554.44907 -583.76196,563.04333 -583.71653,563.96309 C -585.50617,570.53921 -581.65454,573.18251 -576.57025,572.74356 C -575.7502,568.67015 -571.61832,559.97485 -569.67039,557.82008 C -571.57473,560.13276 -575.78964,568.7245 -576.58792,572.90257 C -573.77914,578.98672 -570.01212,580.69299 -563.95605,576.8688 L -563.85005,559.34598 L -563.74405,576.8688 C -557.68798,580.69299 -553.9298,578.98672 -551.12102,572.90257 C -552.13628,569.15845 -556.32719,560.53639 -558.02971,557.82008 C -556.68601,560.0222 -552.59583,568.2161 -551.12985,572.74356 C -546.04556,573.18251 -542.19393,570.53921 -543.98357,563.96309 C -544.27289,561.98496 -553.3959,553.67405 -554.13598,553.81378 C -552.94919,553.68381 -543.86247,562.35025 -543.95707,563.94543 C -536.16309,560.78266 -540.01344,551.81007 -552.84354,550.21821 C -553.61628,547.9917 -557.54743,540.36483 -561.89093,537.05921 C -561.89093,537.05921 -563.20316,535.90087 -563.85005,536.19949 L -565.65208,537.29484 z "
         style="fill:#ffffff;fill-opacity:1;fill-rule:evenodd;stroke:#000000;stroke-width:0.49999994;stroke-linecap:butt;stroke-linejoin:miter;stroke-miterlimit:4;stroke-dasharray:none;stroke-opacity:1"
         id="path20234" />
      <path
         d="M -575.77219,554.92195 C -569.23288,558.17793 -563.25345,557.5148 -557.54969,554.92195"
         style="fill:none;fill-rule:evenodd;stroke:#000000;stroke-width:0.49999994;stroke-linecap:butt;stroke-linejoin:miter;stroke-miterlimit:4;stroke-dasharray:none;stroke-opacity:1"
         id="path20236" />
      <path
         d="M -579.5591,558.0805 C -569.50531,568.73484 -559.03261,569.20256 -548.141,558.0805"
         style="fill:none;fill-rule:evenodd;stroke:#000000;stroke-width:0.49999994;stroke-linecap:butt;stroke-linejoin:miter;stroke-miterlimit:4;stroke-dasharray:none;stroke-opacity:1"
         id="path20238" />
      <path
         id="path20182"
         style="fill:#ffffff;fill-opacity:1;fill-rule:evenodd;stroke:#000000;stroke-width:0.49999994;stroke-linecap:butt;stroke-linejoin:miter;stroke-miterlimit:4;stroke-dasharray:none;stroke-opacity:1"
         d="M -537.0641,568.3633 L -517.75551,594.15844 L -498.4388,568.3633 L -517.75551,568.3633 L -537.0641,568.3633 z " />
      <path
         id="path20184"
         style="fill:#ffffff;fill-opacity:1;fill-rule:evenodd;stroke:#000000;stroke-width:0.49999994;stroke-linecap:butt;stroke-linejoin:miter;stroke-miterlimit:4;stroke-dasharray:none;stroke-opacity:1"
         d="M -519.55348,568.49571 C -523.89698,571.80133 -527.98522,579.19257 -528.75796,581.41908 C -541.58806,583.01094 -545.43841,591.98353 -537.64443,595.1463 C -537.45966,594.14643 -528.51861,585.51394 -527.47435,585.1894 C -528.71913,585.64994 -537.66336,594.2442 -537.61793,595.16396 C -539.40757,601.74008 -535.55594,604.38338 -530.47165,603.94443 C -529.6516,599.87102 -525.51972,591.17572 -523.57179,589.02095 C -525.47613,591.33363 -529.69104,599.92537 -530.48932,604.10344 C -527.68054,610.18759 -523.91352,611.89386 -517.85745,608.06967 L -517.75145,590.54685 L -517.64545,608.06967 C -511.58938,611.89386 -507.8312,610.18759 -505.02242,604.10344 C -506.03768,600.35932 -510.22859,591.73726 -511.93111,589.02095 C -510.58741,591.22307 -506.49723,599.41697 -505.03125,603.94443 C -499.94696,604.38338 -496.09533,601.74008 -497.88497,595.16396 C -498.17429,593.18583 -507.2973,584.87492 -508.03738,585.01465 C -506.85059,584.88468 -497.76387,593.55112 -497.85847,595.1463 C -490.06449,591.98353 -493.91484,583.01094 -506.74494,581.41908 C -507.51768,579.19257 -511.44883,571.5657 -515.79233,568.26008 C -515.79233,568.26008 -517.10456,567.10174 -517.75145,567.40036 L -519.55348,568.49571 z " />
      <path
         id="path20186"
         style="fill:none;fill-rule:evenodd;stroke:#000000;stroke-width:0.49999994;stroke-linecap:butt;stroke-linejoin:miter;stroke-miterlimit:4;stroke-dasharray:none;stroke-opacity:1"
         d="M -526.8627,583.31193 C -520.32339,586.56791 -514.34396,585.90478 -508.6402,583.31193" />
      <path
         id="path20188"
         style="fill:none;fill-rule:evenodd;stroke:#000000;stroke-width:0.49999994;stroke-linecap:butt;stroke-linejoin:miter;stroke-miterlimit:4;stroke-dasharray:none;stroke-opacity:1"
         d="M -533.4605,589.28137 C -523.40671,599.93571 -512.93401,600.40343 -502.0424,589.28137" />
    </g>
  </g>
  <g
     inkscape:groupmode="layer"
     id="layer2"
     transform="translate(-1.2170716,-1.26427)">
    <path
       id="path3430"
       d="M 799.5926,1303.6645 L 799.5926,1303.6645 z "
       style="fill:none;fill-rule:evenodd;stroke:#000000;stroke-width:0.98280448px;stroke-linecap:butt;stroke-linejoin:miter;stroke-opacity:1" />
  </g>
</svg>
