<?xml version="1.0" encoding="UTF-8" standalone="no"?>
<svg
   xmlns:dc="http://purl.org/dc/elements/1.1/"
   xmlns:cc="http://creativecommons.org/ns#"
   xmlns:rdf="http://www.w3.org/1999/02/22-rdf-syntax-ns#"
   xmlns:svg="http://www.w3.org/2000/svg"
   xmlns="http://www.w3.org/2000/svg"
   xmlns:xlink="http://www.w3.org/1999/xlink"
   xmlns:sodipodi="http://sodipodi.sourceforge.net/DTD/sodipodi-0.dtd"
   xmlns:inkscape="http://www.inkscape.org/namespaces/inkscape"
   height="960"
   viewBox="0 0 1600 960"
   width="1600"
   version="1.1"
   id="svg216"
   sodipodi:docname="Flag_of_the_region_Bourgogne-Franche-Comté_(fixed).svg"
   inkscape:version="0.92.3 (2405546, 2018-03-11)">
  <metadata
     id="metadata222">
    <rdf:RDF>
      <cc:Work
         rdf:about="">
        <dc:format>image/svg+xml</dc:format>
        <dc:type
           rdf:resource="http://purl.org/dc/dcmitype/StillImage" />
      </cc:Work>
    </rdf:RDF>
  </metadata>
  <defs
     id="defs220" />
  <sodipodi:namedview
     pagecolor="#ffffff"
     bordercolor="#666666"
     borderopacity="1"
     objecttolerance="10"
     gridtolerance="10"
     guidetolerance="10"
     inkscape:pageopacity="0"
     inkscape:pageshadow="2"
     inkscape:window-width="1920"
     inkscape:window-height="1017"
     id="namedview218"
     showgrid="false"
     inkscape:zoom="0.355"
     inkscape:cx="800"
     inkscape:cy="-27.042254"
     inkscape:window-x="-8"
     inkscape:window-y="-8"
     inkscape:window-maximized="1"
     inkscape:current-layer="svg216" />
  <clipPath
     id="a">
    <path
       d="m0 720h1200v-720h-1200z"
       id="path2" />
  </clipPath>
  <g
     transform="matrix(1.3333333,0,0,-1.3333333,0,960)"
     id="g214">
    <path
       d="M 0,0 H 1200 V 720 H 0 Z"
       id="path5"
       inkscape:connector-curvature="0"
       style="fill:#0045b1;fill-opacity:1" />
    <path
       d="m 600.00002,720.00002 v -47.40257 h 16.13964 v 47.40257 z m 89.1665,0 v -47.40257 h 25.63916 v 47.40257 z m 98.66605,0 v -47.40257 h 25.63913 v 47.40257 z m 98.66745,0 v -47.40257 h 25.63913 v 47.40257 z m 98.66603,0 v -47.40257 h 25.63915 v 47.40257 z m 98.66745,0 v -47.40257 h 25.6392 v 47.40257 z m 98.666,0 V 672.59745 H 1200 v 47.40257 z M 639.83351,647.36864 v -54.79333 h 25.63917 v 54.79333 z m 98.66602,0 v -54.79333 h 25.64062 v 54.79333 z m 98.66602,0 v -54.79333 h 25.64062 v 54.79333 z m 98.66745,0 v -54.79333 h 25.64063 v 54.79333 z m 98.6675,0 v -54.79333 h 25.6392 v 54.79333 z m 98.6661,0 v -54.79333 h 25.6391 v 54.79333 z M 600.00002,567.3465 v -54.7948 h 16.13964 v 54.7948 z m 89.1665,0 v -54.79333 h 25.63916 v 54.79333 z m 98.66605,0 v -54.79333 h 25.64063 v 54.79333 z m 98.66745,0 v -54.79333 h 25.64063 v 54.79333 z m 98.66603,0 v -54.79333 h 25.64065 v 54.79333 z m 98.66745,0 v -54.79333 h 25.6392 v 54.79333 z m 98.666,0 V 512.5517 H 1200 v 54.7948 z M 639.83351,487.32289 v -54.79186 h 25.63917 v 54.79186 z m 98.66602,0 v -54.79186 h 25.64062 v 54.79186 z m 98.66602,0 v -54.79186 h 25.64062 v 54.79186 z m 98.66745,0 v -54.79186 h 25.64063 v 54.79186 z m 98.6675,0 v -54.79186 h 25.6392 v 54.79186 z m 98.6661,0 v -54.79186 h 25.6391 v 54.79186 z M 600.00002,407.30075 v -47.29928 h 16.13964 v 47.29928 z m 89.1665,0 v -47.29928 h 25.63916 v 47.29928 z m 98.66605,0 v -47.29928 h 25.63913 v 47.29928 z m 98.66745,0 v -47.29928 h 25.63913 v 47.29928 z m 98.66603,0 v -47.29928 h 25.63915 v 47.29928 z m 98.66745,0 v -47.29928 h 25.6392 v 47.29928 z m 98.666,0 V 360.00147 H 1200 v 47.29928 z M -4e-6,360.00001 0,312.49561 h 16.139649 l -4e-6,47.5044 z m 89.167967,0 4e-6,-47.5044 h 25.637703 v 47.5044 z m 98.666027,0 v -47.5044 h 25.6377 v 47.5044 z m 98.66602,0 v -47.5044 h 25.63916 v 47.5044 z m 98.66602,0 v -47.5044 h 25.63915 v 47.5044 z m 98.66748,0 v -47.5044 h 25.63916 v 47.5044 z m 98.66748,0 v -47.40257 h 17.49903 v 47.40257 z M 39.833497,287.2668 v -54.79333 h 25.640626 v 54.79333 z m 98.666023,0 v -54.79333 h 25.63915 v 54.79333 z m 98.66748,0 v -54.79333 h 25.63916 v 54.79333 z m 98.66601,0 v -54.79333 h 25.64063 v 54.79333 z m 98.66602,0 v -54.79333 h 25.64209 v 54.79333 z m 98.66749,0 v -54.79333 h 25.63916 V 287.2668 Z M 89.166505,207.24465 v -54.79333 h 25.639165 v 54.79333 z m 98.667485,0 v -54.79333 h 25.63916 v 54.79333 z m 98.66602,0 v -54.79333 h 25.63916 v 54.79333 z m 98.66602,0 v -54.79333 h 25.64062 v 54.79333 z m 98.66748,0 v -54.79333 h 25.63916 v 54.79333 z m 98.66748,0 v -54.79479 h 17.49903 v 54.79479 z M 0,207.24319 v -54.79187 h 16.139649 v 54.79187 z M 39.833497,127.22104 V 72.429182 h 25.640626 v 54.791858 z m 98.666023,0 V 72.429182 h 25.63915 v 54.791858 z m 98.66748,0 V 72.429182 h 25.63916 v 54.791858 z m 98.66601,0 V 72.429182 h 25.64063 v 54.791858 z m 98.66602,0 V 72.429182 h 25.64209 v 54.791858 z m 98.66749,0 V 72.429182 h 25.63916 V 127.22104 Z M 0,47.197431 V 0 h 16.139649 v 47.197431 z m 89.167967,0 V 0 h 25.637703 v 47.197431 z m 98.666023,0 V 0 h 25.6377 v 47.197431 z m 98.66602,0 V 0 h 25.63916 v 47.197431 z m 98.66602,0 V 0 h 25.63915 v 47.197431 z m 98.66748,0 V 0 h 25.63916 v 47.197431 z m 98.66748,0 V 0 h 17.49903 v 47.197431 z"
       id="path7"
       inkscape:connector-curvature="0"
       style="fill:#ffd203;fill-opacity:1" />
    <g
       clip-path="url(#a)"
       id="g179"
       style="fill:#ffd203;fill-opacity:1">
      <path
         d="M 0,-0.45073895 C -0.162,6.3792611 -1.898,12.727261 -5.131,18.743261 c -8.466,17.328 -34.322,16.914 -28.622,-4.279 2.1,-7.8099999 9.235,-12.3989999 17.711,-13.1859999 -0.612,2.057 -3.977,9.3319999 -1.26,10.7549999 4.344,-0.16 9.737,-7.4639999 11.034,-10.9469999 0.188,-0.50000005 0.135,-1.07800005 0.344,-1.57000005"
         transform="translate(140.7979,605.3916)"
         id="path9"
         inkscape:connector-curvature="0"
         style="fill:#ffd203;fill-opacity:1" />
      <path
         d="M 0,0 C 0.162,6.83 1.898,13.178 5.131,19.194 13.597,36.522 39.453,36.108 33.753,14.915 31.653,7.106 24.518,2.516 16.042,1.729 c 0.612,2.058 3.977,9.332 1.26,10.755 C 12.958,12.324 7.565,5.02 6.268,1.537 6.081,1.037 6.133,0.459 5.924,-0.033"
         transform="translate(151.5659,604.9399)"
         id="path11"
         inkscape:connector-curvature="0"
         style="fill:#ffd203;fill-opacity:1" />
      <path
         d="m 0,0 c 8.918,-9.354 14.907,-20.17 12.325,-32.855 -1.424,-6.999 -4.876,-13.48 -7.311,-20.223 -1.523,-4.23 -1.912,-8.649 -1.732,-13.094 h -7.566 c 0.362,4.479 -0.431,8.819 -1.732,13.094 -2.319,6.785 -5.849,13.219 -7.311,20.223 -2.734,13.094 3.683,22.97 12.286,32.814 l 0.526,0.652 z"
         transform="translate(146.6821,671.1123)"
         id="path13"
         inkscape:connector-curvature="0"
         style="fill:#ffd203;fill-opacity:1" />
      <path
         d="m 0,0 c 1.582,-4.314 8.032,-12.214 11.458,-14.466 0.888,-0.584 -4.248,0.337 -6.547,0.827 -3.016,0.643 -6.936,3.77 -6.844,2.666 0.009,-5.053 -1.452,-13.485 -5.258,-17.359 l -0.361,-0.374 -0.372,0.374 c -3.805,4.318 -5.239,11.911 -5.258,17.359 0.092,1.104 -3.828,-2.023 -6.844,-2.666 -2.3,-0.49 -7.435,-1.411 -6.547,-0.827 3.426,2.252 9.872,10.152 11.454,14.466 z"
         transform="translate(153.7388,599.7554)"
         id="path15"
         inkscape:connector-curvature="0"
         style="fill:#ffd203;fill-opacity:1" />
      <path
         d="m 0,0 h -30.053 c -1.647,0 -2.982,-1.271 -2.982,-2.839 0,-1.568 1.335,-2.839 2.982,-2.839 H 0 c 1.647,0 2.982,1.271 2.982,2.839 C 2.982,-1.271 1.647,0 0,0"
         transform="translate(161.1797,605.1597)"
         id="path17"
         inkscape:connector-curvature="0"
         style="fill:#ffd203;fill-opacity:1" />
      <path
         d="M 0,-0.45073895 C -0.162,6.3792611 -1.898,12.727261 -5.131,18.743261 c -8.466,17.328 -34.322,16.914 -28.622,-4.279 2.1,-7.8099999 9.235,-12.3989999 17.711,-13.1859999 -0.612,2.057 -3.977,9.3319999 -1.26,10.7549999 4.344,-0.16 9.737,-7.4639999 11.034,-10.9469999 0.187,-0.50000005 0.135,-1.07800005 0.344,-1.57000005"
         transform="translate(243.3433,605.3916)"
         id="path19"
         inkscape:connector-curvature="0"
         style="fill:#ffd203;fill-opacity:1" />
      <path
         d="M 0,0 C 0.162,6.83 1.898,13.178 5.131,19.194 13.597,36.522 39.453,36.108 33.753,14.915 31.653,7.106 24.518,2.516 16.042,1.729 c 0.612,2.058 3.977,9.332 1.26,10.755 C 12.958,12.324 7.565,5.02 6.268,1.537 6.081,1.037 6.133,0.459 5.924,-0.033"
         transform="translate(254.1113,604.9399)"
         id="path21"
         inkscape:connector-curvature="0"
         style="fill:#ffd203;fill-opacity:1" />
      <path
         d="m 0,0 c 8.918,-9.354 14.907,-20.17 12.325,-32.855 -1.424,-6.999 -4.876,-13.48 -7.311,-20.223 -1.523,-4.23 -1.912,-8.649 -1.732,-13.094 h -7.566 c 0.362,4.479 -0.431,8.819 -1.732,13.094 -2.319,6.785 -5.849,13.219 -7.311,20.223 -2.734,13.094 3.683,22.97 12.286,32.814 l 0.526,0.652 z"
         transform="translate(249.2275,671.1123)"
         id="path23"
         inkscape:connector-curvature="0"
         style="fill:#ffd203;fill-opacity:1" />
      <path
         d="m 0,0 c 1.582,-4.314 8.032,-12.214 11.458,-14.466 0.888,-0.584 -4.248,0.337 -6.547,0.827 -3.016,0.643 -6.936,3.77 -6.844,2.666 0.008,-5.053 -1.452,-13.485 -5.258,-17.359 l -0.361,-0.374 -0.372,0.374 c -3.805,4.318 -5.239,11.911 -5.258,17.359 0.092,1.104 -3.828,-2.023 -6.844,-2.666 -2.3,-0.49 -7.435,-1.411 -6.547,-0.827 3.426,2.252 9.872,10.152 11.454,14.466 z"
         transform="translate(256.2842,599.7554)"
         id="path25"
         inkscape:connector-curvature="0"
         style="fill:#ffd203;fill-opacity:1" />
      <path
         d="m 0,0 h -30.053 c -1.647,0 -2.982,-1.271 -2.982,-2.839 0,-1.568 1.335,-2.839 2.982,-2.839 H 0 c 1.647,0 2.982,1.271 2.982,2.839 C 2.982,-1.271 1.647,0 0,0"
         transform="translate(263.7251,605.1597)"
         id="path27"
         inkscape:connector-curvature="0"
         style="fill:#ffd203;fill-opacity:1" />
      <path
         d="M 0,-0.45073895 C -0.162,6.3792611 -1.898,12.727261 -5.132,18.743261 c -8.465,17.328 -34.321,16.914 -28.621,-4.278 2.1,-7.8099999 9.234,-12.3999999 17.711,-13.1869999 -0.612,2.058 -3.977,9.3319999 -1.261,10.7549999 4.344,-0.159 9.738,-7.4639999 11.035,-10.9469999 0.187,-0.50000005 0.135,-1.07800005 0.344,-1.57000005"
         transform="translate(89.5254,523.9556)"
         id="path29"
         inkscape:connector-curvature="0"
         style="fill:#ffd203;fill-opacity:1" />
      <path
         d="m 0,0 c 0.161,6.83 1.898,13.178 5.131,19.194 8.466,17.328 34.322,16.914 28.622,-4.278 -2.1,-7.81 -9.235,-12.4 -17.711,-13.187 0.612,2.058 3.977,9.332 1.26,10.755 C 12.958,12.325 7.564,5.021 6.268,1.537 6.08,1.037 6.132,0.459 5.923,-0.033"
         transform="translate(100.2935,523.5039)"
         id="path31"
         inkscape:connector-curvature="0"
         style="fill:#ffd203;fill-opacity:1" />
      <path
         d="M 0,0 C 8.918,-9.354 14.907,-20.17 12.325,-32.855 10.901,-39.854 7.448,-46.336 5.014,-53.078 3.491,-57.308 3.102,-61.727 3.282,-66.172 h -7.566 c 0.362,4.478 -0.432,8.818 -1.732,13.094 -2.319,6.784 -5.849,13.219 -7.311,20.223 -2.734,13.094 3.683,22.969 12.286,32.813 l 0.526,0.653 z"
         transform="translate(95.4097,589.6768)"
         id="path33"
         inkscape:connector-curvature="0"
         style="fill:#ffd203;fill-opacity:1" />
      <path
         d="m 0,0 c 1.582,-4.313 8.032,-12.214 11.458,-14.466 0.888,-0.584 -4.248,0.337 -6.547,0.827 -3.016,0.643 -6.936,3.77 -6.844,2.667 0.008,-5.053 -1.452,-13.486 -5.258,-17.36 l -0.361,-0.374 -0.372,0.374 c -3.805,4.318 -5.239,11.911 -5.258,17.36 0.092,1.103 -3.828,-2.024 -6.844,-2.667 -2.3,-0.49 -7.435,-1.411 -6.547,-0.827 3.426,2.252 9.872,10.153 11.454,14.466 z"
         transform="translate(102.4663,518.3193)"
         id="path35"
         inkscape:connector-curvature="0"
         style="fill:#ffd203;fill-opacity:1" />
      <path
         d="m 0,0 h -30.054 c -1.646,0 -2.982,-1.271 -2.982,-2.839 0,-1.568 1.336,-2.839 2.982,-2.839 H 0 c 1.647,0 2.982,1.271 2.982,2.839 C 2.982,-1.271 1.647,0 0,0"
         transform="translate(109.9072,523.7236)"
         id="path37"
         inkscape:connector-curvature="0"
         style="fill:#ffd203;fill-opacity:1" />
      <path
         d="M 0,-0.45073895 C -0.161,6.3792611 -1.897,12.727261 -5.131,18.743261 c -8.466,17.328 -34.322,16.914 -28.622,-4.278 2.1,-7.8099999 9.235,-12.3999999 17.711,-13.1869999 -0.611,2.058 -3.977,9.3319999 -1.26,10.7549999 4.344,-0.159 9.738,-7.4639999 11.034,-10.9469999 0.188,-0.50000005 0.136,-1.07800005 0.345,-1.57000005"
         transform="translate(192.0703,523.9556)"
         id="path39"
         inkscape:connector-curvature="0"
         style="fill:#ffd203;fill-opacity:1" />
      <path
         d="m 0,0 c 0.161,6.83 1.897,13.178 5.131,19.194 8.466,17.328 34.322,16.914 28.622,-4.278 -2.1,-7.81 -9.235,-12.4 -17.711,-13.187 0.611,2.058 3.977,9.332 1.26,10.755 C 12.958,12.325 7.564,5.021 6.268,1.537 6.08,1.037 6.132,0.459 5.923,-0.033"
         transform="translate(202.8389,523.5039)"
         id="path41"
         inkscape:connector-curvature="0"
         style="fill:#ffd203;fill-opacity:1" />
      <path
         d="M 0,0 C 8.918,-9.354 14.906,-20.17 12.325,-32.855 10.901,-39.854 7.448,-46.336 5.014,-53.078 3.491,-57.308 3.102,-61.727 3.282,-66.172 h -7.566 c 0.362,4.478 -0.432,8.818 -1.732,13.094 -2.319,6.784 -5.849,13.219 -7.311,20.223 -2.734,13.094 3.683,22.969 12.286,32.813 l 0.526,0.653 z"
         transform="translate(197.9551,589.6768)"
         id="path43"
         inkscape:connector-curvature="0"
         style="fill:#ffd203;fill-opacity:1" />
      <path
         d="m 0,0 c 1.582,-4.313 8.032,-12.214 11.458,-14.466 0.888,-0.584 -4.248,0.337 -6.547,0.827 -3.016,0.643 -6.936,3.77 -6.845,2.667 0.009,-5.053 -1.451,-13.486 -5.257,-17.36 l -0.361,-0.374 -0.372,0.374 c -3.805,4.318 -5.239,11.911 -5.258,17.36 0.092,1.103 -3.828,-2.024 -6.844,-2.667 -2.3,-0.49 -7.436,-1.411 -6.547,-0.827 3.426,2.252 9.872,10.153 11.454,14.466 z"
         transform="translate(205.0117,518.3193)"
         id="path45"
         inkscape:connector-curvature="0"
         style="fill:#ffd203;fill-opacity:1" />
      <path
         d="m 0,0 h -30.054 c -1.647,0 -2.982,-1.271 -2.982,-2.839 0,-1.568 1.335,-2.839 2.982,-2.839 H 0 c 1.647,0 2.982,1.271 2.982,2.839 C 2.982,-1.271 1.647,0 0,0"
         transform="translate(212.4526,523.7236)"
         id="path47"
         inkscape:connector-curvature="0"
         style="fill:#ffd203;fill-opacity:1" />
      <path
         d="M 0,-0.45073895 C -0.162,6.3792611 -1.898,12.727261 -5.132,18.743261 c -8.465,17.328 -34.321,16.914 -28.621,-4.278 2.1,-7.8099999 9.234,-12.3999999 17.711,-13.1869999 -0.612,2.058 -3.977,9.3319999 -1.261,10.7549999 4.344,-0.159 9.738,-7.4639999 11.035,-10.9469999 0.187,-0.50000005 0.135,-1.07800005 0.344,-1.57000005"
         transform="translate(294.6162,523.9556)"
         id="path49"
         inkscape:connector-curvature="0"
         style="fill:#ffd203;fill-opacity:1" />
      <path
         d="m 0,0 c 0.162,6.83 1.898,13.178 5.132,19.194 8.465,17.328 34.321,16.914 28.621,-4.278 -2.1,-7.81 -9.234,-12.4 -17.711,-13.187 0.612,2.058 3.977,9.332 1.261,10.755 C 12.959,12.325 7.565,5.021 6.268,1.537 6.081,1.037 6.133,0.459 5.924,-0.033"
         transform="translate(305.3838,523.5039)"
         id="path51"
         inkscape:connector-curvature="0"
         style="fill:#ffd203;fill-opacity:1" />
      <path
         d="M 0,0 C 8.918,-9.354 14.907,-20.17 12.325,-32.855 10.901,-39.854 7.448,-46.336 5.014,-53.078 3.491,-57.308 3.102,-61.727 3.282,-66.172 h -7.566 c 0.362,4.478 -0.432,8.818 -1.732,13.094 -2.319,6.784 -5.849,13.219 -7.311,20.223 -2.734,13.094 3.683,22.969 12.286,32.813 l 0.526,0.653 z"
         transform="translate(300.5005,589.6768)"
         id="path53"
         inkscape:connector-curvature="0"
         style="fill:#ffd203;fill-opacity:1" />
      <path
         d="m 0,0 c 1.582,-4.313 8.032,-12.214 11.458,-14.466 0.888,-0.584 -4.248,0.337 -6.547,0.827 -3.016,0.643 -6.936,3.77 -6.845,2.667 0.009,-5.053 -1.451,-13.486 -5.257,-17.36 l -0.361,-0.374 -0.372,0.374 c -3.805,4.318 -5.239,11.911 -5.258,17.36 0.092,1.103 -3.828,-2.024 -6.844,-2.667 -2.3,-0.49 -7.435,-1.411 -6.547,-0.827 3.426,2.252 9.872,10.153 11.454,14.466 z"
         transform="translate(307.5571,518.3193)"
         id="path55"
         inkscape:connector-curvature="0"
         style="fill:#ffd203;fill-opacity:1" />
      <path
         d="m 0,0 h -30.054 c -1.646,0 -2.982,-1.271 -2.982,-2.839 0,-1.568 1.336,-2.839 2.982,-2.839 H 0 c 1.647,0 2.982,1.271 2.982,2.839 C 2.982,-1.271 1.647,0 0,0"
         transform="translate(314.998,523.7236)"
         id="path57"
         inkscape:connector-curvature="0"
         style="fill:#ffd203;fill-opacity:1" />
      <path
         d="M 0,-0.45073895 C -0.162,6.3802611 -1.898,12.727261 -5.131,18.743261 c -8.466,17.328 -34.322,16.915 -28.622,-4.278 2.1,-7.8099999 9.235,-12.3999999 17.711,-13.1869999 -0.612,2.058 -3.977,9.3329999 -1.26,10.7549999 4.344,-0.159 9.737,-7.4629999 11.034,-10.9469999 0.188,-0.50000005 0.135,-1.07800005 0.344,-1.57000005"
         transform="translate(140.7979,442.5195)"
         id="path59"
         inkscape:connector-curvature="0"
         style="fill:#ffd203;fill-opacity:1" />
      <path
         d="M 0,0 C 0.162,6.83 1.898,13.178 5.131,19.194 13.597,36.522 39.453,36.108 33.753,14.915 31.653,7.106 24.518,2.516 16.042,1.729 c 0.612,2.057 3.977,9.332 1.26,10.755 C 12.958,12.324 7.565,5.02 6.268,1.537 6.081,1.037 6.133,0.459 5.924,-0.033"
         transform="translate(151.5659,442.0684)"
         id="path61"
         inkscape:connector-curvature="0"
         style="fill:#ffd203;fill-opacity:1" />
      <path
         d="m 0,0 c 8.918,-9.354 14.907,-20.17 12.325,-32.855 -1.424,-6.999 -4.876,-13.48 -7.311,-20.223 -1.523,-4.23 -1.912,-8.648 -1.732,-13.094 h -7.566 c 0.362,4.478 -0.431,8.819 -1.732,13.094 -2.319,6.785 -5.849,13.219 -7.311,20.223 -2.734,13.094 3.683,22.97 12.286,32.814 l 0.526,0.652 z"
         transform="translate(146.6821,508.2407)"
         id="path63"
         inkscape:connector-curvature="0"
         style="fill:#ffd203;fill-opacity:1" />
      <path
         d="m 0,0 c 1.582,-4.314 8.032,-12.214 11.458,-14.466 0.888,-0.584 -4.248,0.337 -6.547,0.827 -3.016,0.643 -6.936,3.77 -6.844,2.666 0.009,-5.053 -1.452,-13.485 -5.258,-17.359 l -0.361,-0.374 -0.372,0.374 c -3.805,4.318 -5.239,11.911 -5.258,17.359 0.092,1.104 -3.828,-2.023 -6.844,-2.666 -2.3,-0.49 -7.435,-1.411 -6.547,-0.827 3.426,2.252 9.872,10.152 11.454,14.466 z"
         transform="translate(153.7388,436.8838)"
         id="path65"
         inkscape:connector-curvature="0"
         style="fill:#ffd203;fill-opacity:1" />
      <path
         d="m 0,0 h -30.053 c -1.647,0 -2.982,-1.271 -2.982,-2.839 0,-1.568 1.335,-2.839 2.982,-2.839 H 0 c 1.647,0 2.982,1.271 2.982,2.839 C 2.982,-1.271 1.647,0 0,0"
         transform="translate(161.1797,442.2881)"
         id="path67"
         inkscape:connector-curvature="0"
         style="fill:#ffd203;fill-opacity:1" />
      <path
         d="M 0,-0.45073895 C -0.162,6.3802611 -1.898,12.727261 -5.131,18.743261 c -8.466,17.328 -34.322,16.915 -28.622,-4.278 2.1,-7.8099999 9.235,-12.3999999 17.711,-13.1869999 -0.612,2.058 -3.977,9.3329999 -1.26,10.7549999 4.344,-0.159 9.737,-7.4629999 11.034,-10.9469999 0.187,-0.50000005 0.135,-1.07800005 0.344,-1.57000005"
         transform="translate(243.3433,442.5195)"
         id="path69"
         inkscape:connector-curvature="0"
         style="fill:#ffd203;fill-opacity:1" />
      <path
         d="M 0,0 C 0.162,6.83 1.898,13.178 5.131,19.194 13.597,36.522 39.453,36.108 33.753,14.915 31.653,7.106 24.518,2.516 16.042,1.729 c 0.612,2.057 3.977,9.332 1.26,10.755 C 12.958,12.324 7.565,5.02 6.268,1.537 6.081,1.037 6.133,0.459 5.924,-0.033"
         transform="translate(254.1113,442.0684)"
         id="path71"
         inkscape:connector-curvature="0"
         style="fill:#ffd203;fill-opacity:1" />
      <path
         d="m 0,0 c 8.918,-9.354 14.907,-20.17 12.325,-32.855 -1.424,-6.999 -4.876,-13.48 -7.311,-20.223 -1.523,-4.23 -1.912,-8.648 -1.732,-13.094 h -7.566 c 0.362,4.478 -0.431,8.819 -1.732,13.094 -2.319,6.785 -5.849,13.219 -7.311,20.223 -2.734,13.094 3.683,22.97 12.286,32.814 l 0.526,0.652 z"
         transform="translate(249.2275,508.2407)"
         id="path73"
         inkscape:connector-curvature="0"
         style="fill:#ffd203;fill-opacity:1" />
      <path
         d="m 0,0 c 1.582,-4.314 8.032,-12.214 11.458,-14.466 0.888,-0.584 -4.248,0.337 -6.547,0.827 -3.016,0.643 -6.936,3.77 -6.844,2.666 0.008,-5.053 -1.452,-13.485 -5.258,-17.359 l -0.361,-0.374 -0.372,0.374 c -3.805,4.318 -5.239,11.911 -5.258,17.359 0.092,1.104 -3.828,-2.023 -6.844,-2.666 -2.3,-0.49 -7.435,-1.411 -6.547,-0.827 3.426,2.252 9.872,10.152 11.454,14.466 z"
         transform="translate(256.2842,436.8838)"
         id="path75"
         inkscape:connector-curvature="0"
         style="fill:#ffd203;fill-opacity:1" />
      <path
         d="m 0,0 h -30.053 c -1.647,0 -2.982,-1.271 -2.982,-2.839 0,-1.568 1.335,-2.839 2.982,-2.839 H 0 c 1.647,0 2.982,1.271 2.982,2.839 C 2.982,-1.271 1.647,0 0,0"
         transform="translate(263.7251,442.2881)"
         id="path77"
         inkscape:connector-curvature="0"
         style="fill:#ffd203;fill-opacity:1" />
      <path
         d="M 0,-0.45073895 C -0.162,6.3792611 -1.898,12.727261 -5.131,18.743261 c -8.466,17.328 -34.322,16.914 -28.622,-4.279 2.1,-7.8099999 9.234,-12.3989999 17.711,-13.1859999 -0.612,2.057 -3.977,9.3319999 -1.261,10.7549999 4.344,-0.16 9.738,-7.4639999 11.035,-10.9469999 0.187,-0.50000005 0.135,-1.07800005 0.344,-1.57000005"
         transform="translate(345.8887,605.3916)"
         id="path79"
         inkscape:connector-curvature="0"
         style="fill:#ffd203;fill-opacity:1" />
      <path
         d="M 0,0 C 0.161,6.83 1.898,13.178 5.131,19.194 13.597,36.522 39.453,36.108 33.753,14.915 31.653,7.106 24.518,2.516 16.042,1.729 c 0.612,2.058 3.977,9.332 1.26,10.755 C 12.958,12.324 7.564,5.02 6.268,1.537 6.08,1.037 6.133,0.459 5.923,-0.033"
         transform="translate(356.6567,604.9399)"
         id="path81"
         inkscape:connector-curvature="0"
         style="fill:#ffd203;fill-opacity:1" />
      <path
         d="m 0,0 c 8.918,-9.354 14.907,-20.17 12.325,-32.855 -1.424,-6.999 -4.877,-13.48 -7.311,-20.223 -1.523,-4.23 -1.912,-8.649 -1.732,-13.094 h -7.566 c 0.362,4.479 -0.431,8.819 -1.732,13.094 -2.319,6.785 -5.849,13.219 -7.311,20.223 -2.734,13.094 3.683,22.97 12.286,32.814 l 0.526,0.652 z"
         transform="translate(351.7729,671.1123)"
         id="path83"
         inkscape:connector-curvature="0"
         style="fill:#ffd203;fill-opacity:1" />
      <path
         d="m 0,0 c 1.582,-4.314 8.032,-12.214 11.458,-14.466 0.888,-0.584 -4.248,0.337 -6.547,0.827 -3.016,0.643 -6.936,3.77 -6.844,2.666 0.008,-5.053 -1.452,-13.485 -5.258,-17.359 l -0.361,-0.374 -0.372,0.374 c -3.805,4.318 -5.239,11.911 -5.258,17.359 0.092,1.104 -3.828,-2.023 -6.844,-2.666 -2.3,-0.49 -7.435,-1.411 -6.547,-0.827 3.426,2.252 9.872,10.152 11.454,14.466 z"
         transform="translate(358.8296,599.7554)"
         id="path85"
         inkscape:connector-curvature="0"
         style="fill:#ffd203;fill-opacity:1" />
      <path
         d="m 0,0 h -30.054 c -1.646,0 -2.981,-1.271 -2.981,-2.839 0,-1.568 1.335,-2.839 2.981,-2.839 H 0 c 1.647,0 2.982,1.271 2.982,2.839 C 2.982,-1.271 1.647,0 0,0"
         transform="translate(366.2705,605.1597)"
         id="path87"
         inkscape:connector-curvature="0"
         style="fill:#ffd203;fill-opacity:1" />
      <path
         d="M 0,-0.45073895 C -0.161,6.3792611 -1.897,12.727261 -5.131,18.743261 c -8.466,17.328 -34.322,16.914 -28.622,-4.279 2.101,-7.8099999 9.235,-12.3989999 17.711,-13.1859999 -0.611,2.057 -3.977,9.3319999 -1.26,10.7549999 4.344,-0.16 9.738,-7.4639999 11.034,-10.9469999 0.188,-0.50000005 0.135,-1.07800005 0.345,-1.57000005"
         transform="translate(448.4336,605.3916)"
         id="path89"
         inkscape:connector-curvature="0"
         style="fill:#ffd203;fill-opacity:1" />
      <path
         d="M 0,0 C 0.161,6.83 1.897,13.178 5.131,19.194 13.597,36.522 39.453,36.108 33.753,14.915 31.653,7.106 24.519,2.516 16.042,1.729 16.653,3.787 20.019,11.061 17.303,12.484 12.959,12.324 7.564,5.02 6.268,1.537 6.08,1.037 6.133,0.459 5.924,-0.033"
         transform="translate(459.2021,604.9399)"
         id="path91"
         inkscape:connector-curvature="0"
         style="fill:#ffd203;fill-opacity:1" />
      <path
         d="m 0,0 c 8.919,-9.354 14.906,-20.17 12.325,-32.855 -1.424,-6.999 -4.877,-13.48 -7.311,-20.223 -1.523,-4.23 -1.912,-8.649 -1.732,-13.094 h -7.566 c 0.362,4.479 -0.432,8.819 -1.732,13.094 -2.32,6.785 -5.849,13.219 -7.311,20.223 -2.734,13.094 3.682,22.97 12.286,32.814 l 0.525,0.652 z"
         transform="translate(454.3184,671.1123)"
         id="path93"
         inkscape:connector-curvature="0"
         style="fill:#ffd203;fill-opacity:1" />
      <path
         d="m 0,0 c 1.582,-4.314 8.032,-12.214 11.458,-14.466 0.889,-0.584 -4.248,0.337 -6.547,0.827 -3.016,0.643 -6.936,3.77 -6.845,2.666 0.009,-5.053 -1.451,-13.485 -5.257,-17.359 l -0.361,-0.374 -0.372,0.374 c -3.805,4.318 -5.239,11.911 -5.258,17.359 0.092,1.104 -3.828,-2.023 -6.844,-2.666 -2.3,-0.49 -7.436,-1.411 -6.547,-0.827 3.426,2.252 9.872,10.152 11.454,14.466 z"
         transform="translate(461.375,599.7554)"
         id="path95"
         inkscape:connector-curvature="0"
         style="fill:#ffd203;fill-opacity:1" />
      <path
         d="m 0,0 h -30.054 c -1.647,0 -2.982,-1.271 -2.982,-2.839 0,-1.568 1.335,-2.839 2.982,-2.839 H 0 c 1.646,0 2.981,1.271 2.981,2.839 C 2.981,-1.271 1.646,0 0,0"
         transform="translate(468.8164,605.1597)"
         id="path97"
         inkscape:connector-curvature="0"
         style="fill:#ffd203;fill-opacity:1" />
      <path
         d="M 0,-0.45073895 C -0.161,6.3792611 -1.898,12.727261 -5.131,18.743261 c -8.466,17.328 -34.322,16.914 -28.622,-4.278 2.1,-7.8099999 9.235,-12.3999999 17.711,-13.1869999 -0.612,2.058 -3.977,9.3319999 -1.26,10.7549999 4.344,-0.159 9.738,-7.4639999 11.034,-10.9469999 0.188,-0.50000005 0.135,-1.07800005 0.345,-1.57000005"
         transform="translate(397.1611,523.9556)"
         id="path99"
         inkscape:connector-curvature="0"
         style="fill:#ffd203;fill-opacity:1" />
      <path
         d="m 0,0 c 0.161,6.83 1.897,13.178 5.131,19.194 8.466,17.328 34.322,16.914 28.622,-4.278 -2.101,-7.81 -9.235,-12.4 -17.711,-13.187 0.611,2.058 3.977,9.332 1.26,10.755 C 12.958,12.325 7.564,5.021 6.268,1.537 6.08,1.037 6.133,0.459 5.924,-0.033"
         transform="translate(407.9297,523.5039)"
         id="path101"
         inkscape:connector-curvature="0"
         style="fill:#ffd203;fill-opacity:1" />
      <path
         d="M 0,0 C 8.918,-9.354 14.906,-20.17 12.325,-32.855 10.9,-39.854 7.448,-46.336 5.014,-53.078 3.491,-57.308 3.102,-61.727 3.282,-66.172 h -7.566 c 0.361,4.478 -0.432,8.818 -1.732,13.094 -2.32,6.784 -5.849,13.219 -7.312,20.223 -2.734,13.094 3.683,22.969 12.287,32.813 l 0.525,0.653 z"
         transform="translate(403.0459,589.6768)"
         id="path103"
         inkscape:connector-curvature="0"
         style="fill:#ffd203;fill-opacity:1" />
      <path
         d="m 0,0 c 1.582,-4.313 8.031,-12.214 11.457,-14.466 0.889,-0.584 -4.247,0.337 -6.546,0.827 -3.016,0.643 -6.936,3.77 -6.845,2.667 0.009,-5.053 -1.451,-13.486 -5.257,-17.36 l -0.361,-0.374 -0.373,0.374 c -3.804,4.318 -5.238,11.911 -5.258,17.36 0.092,1.103 -3.828,-2.024 -6.843,-2.667 -2.3,-0.49 -7.436,-1.411 -6.547,-0.827 3.426,2.252 9.872,10.153 11.454,14.466 z"
         transform="translate(410.1025,518.3193)"
         id="path105"
         inkscape:connector-curvature="0"
         style="fill:#ffd203;fill-opacity:1" />
      <path
         d="m 0,0 h -30.053 c -1.647,0 -2.982,-1.271 -2.982,-2.839 0,-1.568 1.335,-2.839 2.982,-2.839 H 0 c 1.647,0 2.982,1.271 2.982,2.839 C 2.982,-1.271 1.647,0 0,0"
         transform="translate(417.543,523.7236)"
         id="path107"
         inkscape:connector-curvature="0"
         style="fill:#ffd203;fill-opacity:1" />
      <path
         d="M 0,-0.45073895 C -0.162,6.3802611 -1.898,12.727261 -5.131,18.743261 c -8.466,17.328 -34.322,16.915 -28.622,-4.278 2.1,-7.8099999 9.234,-12.3999999 17.711,-13.1869999 -0.612,2.058 -3.977,9.3329999 -1.261,10.7549999 4.344,-0.159 9.738,-7.4629999 11.035,-10.9469999 0.187,-0.50000005 0.135,-1.07800005 0.344,-1.57000005"
         transform="translate(345.8887,442.5195)"
         id="path109"
         inkscape:connector-curvature="0"
         style="fill:#ffd203;fill-opacity:1" />
      <path
         d="M 0,0 C 0.161,6.83 1.898,13.178 5.131,19.194 13.597,36.522 39.453,36.108 33.753,14.915 31.653,7.106 24.518,2.516 16.042,1.729 c 0.612,2.057 3.977,9.332 1.26,10.755 C 12.958,12.324 7.564,5.02 6.268,1.537 6.08,1.037 6.133,0.459 5.923,-0.033"
         transform="translate(356.6567,442.0684)"
         id="path111"
         inkscape:connector-curvature="0"
         style="fill:#ffd203;fill-opacity:1" />
      <path
         d="m 0,0 c 8.918,-9.354 14.907,-20.17 12.325,-32.855 -1.424,-6.999 -4.877,-13.48 -7.311,-20.223 -1.523,-4.23 -1.912,-8.648 -1.732,-13.094 h -7.566 c 0.362,4.478 -0.431,8.819 -1.732,13.094 -2.319,6.785 -5.849,13.219 -7.311,20.223 -2.734,13.094 3.683,22.97 12.286,32.814 l 0.526,0.652 z"
         transform="translate(351.7729,508.2407)"
         id="path113"
         inkscape:connector-curvature="0"
         style="fill:#ffd203;fill-opacity:1" />
      <path
         d="m 0,0 c 1.582,-4.314 8.032,-12.214 11.458,-14.466 0.888,-0.584 -4.248,0.337 -6.547,0.827 -3.016,0.643 -6.936,3.77 -6.844,2.666 0.008,-5.053 -1.452,-13.485 -5.258,-17.359 l -0.361,-0.374 -0.372,0.374 c -3.805,4.318 -5.239,11.911 -5.258,17.359 0.092,1.104 -3.828,-2.023 -6.844,-2.666 -2.3,-0.49 -7.435,-1.411 -6.547,-0.827 3.426,2.252 9.872,10.152 11.454,14.466 z"
         transform="translate(358.8296,436.8838)"
         id="path115"
         inkscape:connector-curvature="0"
         style="fill:#ffd203;fill-opacity:1" />
      <path
         d="m 0,0 h -30.054 c -1.646,0 -2.981,-1.271 -2.981,-2.839 0,-1.568 1.335,-2.839 2.981,-2.839 H 0 c 1.647,0 2.982,1.271 2.982,2.839 C 2.982,-1.271 1.647,0 0,0"
         transform="translate(366.2705,442.2881)"
         id="path117"
         inkscape:connector-curvature="0"
         style="fill:#ffd203;fill-opacity:1" />
      <path
         d="M 0,-0.45073895 C -0.161,6.3802611 -1.897,12.727261 -5.131,18.743261 c -8.466,17.328 -34.322,16.915 -28.622,-4.278 2.101,-7.8099999 9.235,-12.3999999 17.711,-13.1869999 -0.611,2.058 -3.977,9.3329999 -1.26,10.7549999 4.344,-0.159 9.738,-7.4629999 11.034,-10.9469999 0.188,-0.50000005 0.135,-1.07800005 0.345,-1.57000005"
         transform="translate(448.4336,442.5195)"
         id="path119"
         inkscape:connector-curvature="0"
         style="fill:#ffd203;fill-opacity:1" />
      <path
         d="M 0,0 C 0.161,6.83 1.897,13.178 5.131,19.194 13.597,36.522 39.453,36.108 33.753,14.915 31.653,7.106 24.519,2.516 16.042,1.729 16.653,3.786 20.019,11.061 17.303,12.484 12.959,12.324 7.564,5.02 6.268,1.537 6.08,1.037 6.133,0.459 5.924,-0.033"
         transform="translate(459.2021,442.0684)"
         id="path121"
         inkscape:connector-curvature="0"
         style="fill:#ffd203;fill-opacity:1" />
      <path
         d="m 0,0 c 8.919,-9.354 14.906,-20.17 12.325,-32.855 -1.424,-6.999 -4.877,-13.48 -7.311,-20.223 -1.523,-4.23 -1.912,-8.648 -1.732,-13.094 h -7.566 c 0.362,4.478 -0.432,8.819 -1.732,13.094 -2.32,6.785 -5.849,13.219 -7.311,20.223 -2.734,13.094 3.682,22.97 12.286,32.814 l 0.525,0.652 z"
         transform="translate(454.3184,508.2407)"
         id="path123"
         inkscape:connector-curvature="0"
         style="fill:#ffd203;fill-opacity:1" />
      <path
         d="m 0,0 c 1.582,-4.314 8.032,-12.214 11.458,-14.466 0.889,-0.584 -4.248,0.337 -6.547,0.827 -3.016,0.643 -6.936,3.77 -6.845,2.666 0.009,-5.053 -1.451,-13.485 -5.257,-17.359 l -0.361,-0.374 -0.372,0.374 c -3.805,4.318 -5.239,11.911 -5.258,17.359 0.092,1.104 -3.828,-2.023 -6.844,-2.666 -2.3,-0.49 -7.436,-1.411 -6.547,-0.827 3.426,2.252 9.872,10.152 11.454,14.466 z"
         transform="translate(461.375,436.8838)"
         id="path125"
         inkscape:connector-curvature="0"
         style="fill:#ffd203;fill-opacity:1" />
      <path
         d="m 0,0 h -30.054 c -1.647,0 -2.982,-1.271 -2.982,-2.839 0,-1.568 1.335,-2.839 2.982,-2.839 H 0 c 1.646,0 2.981,1.271 2.981,2.839 C 2.981,-1.271 1.646,0 0,0"
         transform="translate(468.8164,442.2881)"
         id="path127"
         inkscape:connector-curvature="0"
         style="fill:#ffd203;fill-opacity:1" />
      <path
         d="m 0,0 c -0.161,6.83 -1.898,13.178 -5.131,19.194 -8.466,17.328 -34.322,16.914 -28.622,-4.279 2.1,-7.81 9.235,-12.399 17.711,-13.186 -0.612,2.057 -3.977,9.332 -1.26,10.755 4.344,-0.16 9.738,-7.464 11.034,-10.947 0.188,-0.5 0.135,-1.078 0.345,-1.57"
         transform="translate(38.2524,605.3916)"
         id="path129"
         inkscape:connector-curvature="0"
         style="fill:#ffd203;fill-opacity:1" />
      <path
         d="M 0,0 C 0.162,6.83 1.898,13.178 5.131,19.194 13.597,36.522 39.453,36.108 33.753,14.915 31.653,7.106 24.519,2.516 16.042,1.729 16.654,3.787 20.019,11.061 17.303,12.484 12.959,12.324 7.565,5.02 6.268,1.537 6.081,1.037 6.133,0.459 5.924,-0.033"
         transform="translate(49.0205,604.9399)"
         id="path131"
         inkscape:connector-curvature="0"
         style="fill:#ffd203;fill-opacity:1" />
      <path
         d="m 0,0 c 8.919,-9.354 14.907,-20.17 12.325,-32.855 -1.424,-6.999 -4.876,-13.48 -7.311,-20.223 -1.523,-4.23 -1.912,-8.649 -1.732,-13.094 h -7.566 c 0.362,4.479 -0.431,8.819 -1.732,13.094 -2.319,6.785 -5.849,13.219 -7.311,20.223 -2.734,13.094 3.683,22.97 12.286,32.814 l 0.526,0.652 z"
         transform="translate(44.1367,671.1123)"
         id="path133"
         inkscape:connector-curvature="0"
         style="fill:#ffd203;fill-opacity:1" />
      <path
         d="m 0,0 c 1.582,-4.314 8.032,-12.214 11.458,-14.466 0.889,-0.584 -4.248,0.337 -6.547,0.827 -3.016,0.643 -6.936,3.77 -6.844,2.666 0.009,-5.053 -1.452,-13.485 -5.258,-17.359 l -0.361,-0.374 -0.372,0.374 c -3.805,4.318 -5.239,11.911 -5.258,17.359 0.092,1.104 -3.828,-2.023 -6.844,-2.666 -2.3,-0.49 -7.435,-1.411 -6.547,-0.827 3.426,2.252 9.872,10.152 11.454,14.466 z"
         transform="translate(51.1934,599.7554)"
         id="path135"
         inkscape:connector-curvature="0"
         style="fill:#ffd203;fill-opacity:1" />
      <path
         d="m 0,0 h -30.054 c -1.647,0 -2.982,-1.271 -2.982,-2.839 0,-1.568 1.335,-2.839 2.982,-2.839 H 0 c 1.646,0 2.982,1.271 2.982,2.839 C 2.982,-1.271 1.646,0 0,0"
         transform="translate(58.6348,605.1597)"
         id="path137"
         inkscape:connector-curvature="0"
         style="fill:#ffd203;fill-opacity:1" />
      <path
         d="m 0,0 c -0.161,6.831 -1.898,13.178 -5.131,19.194 -8.466,17.328 -34.322,16.915 -28.622,-4.278 2.1,-7.81 9.235,-12.4 17.711,-13.187 -0.612,2.058 -3.977,9.333 -1.26,10.755 4.344,-0.159 9.738,-7.463 11.034,-10.947 0.188,-0.5 0.135,-1.078 0.345,-1.57"
         transform="translate(38.2524,442.5195)"
         id="path139"
         inkscape:connector-curvature="0"
         style="fill:#ffd203;fill-opacity:1" />
      <path
         d="M 0,0 C 0.162,6.83 1.898,13.178 5.131,19.194 13.597,36.522 39.453,36.108 33.753,14.915 31.653,7.106 24.519,2.516 16.042,1.729 16.654,3.786 20.019,11.061 17.303,12.484 12.959,12.324 7.565,5.02 6.268,1.537 6.081,1.037 6.133,0.459 5.924,-0.033"
         transform="translate(49.0205,442.0684)"
         id="path141"
         inkscape:connector-curvature="0"
         style="fill:#ffd203;fill-opacity:1" />
      <path
         d="m 0,0 c 8.919,-9.354 14.907,-20.17 12.325,-32.855 -1.424,-6.999 -4.876,-13.48 -7.311,-20.223 -1.523,-4.23 -1.912,-8.648 -1.732,-13.094 h -7.566 c 0.362,4.478 -0.431,8.819 -1.732,13.094 -2.319,6.785 -5.849,13.219 -7.311,20.223 -2.734,13.094 3.683,22.97 12.286,32.814 l 0.526,0.652 z"
         transform="translate(44.1367,508.2407)"
         id="path143"
         inkscape:connector-curvature="0"
         style="fill:#ffd203;fill-opacity:1" />
      <path
         d="m 0,0 c 1.582,-4.314 8.032,-12.214 11.458,-14.466 0.889,-0.584 -4.248,0.337 -6.547,0.827 -3.016,0.643 -6.936,3.77 -6.844,2.666 0.009,-5.053 -1.452,-13.485 -5.258,-17.359 l -0.361,-0.374 -0.372,0.374 c -3.805,4.318 -5.239,11.911 -5.258,17.359 0.092,1.104 -3.828,-2.023 -6.844,-2.666 -2.3,-0.49 -7.435,-1.411 -6.547,-0.827 3.426,2.252 9.872,10.152 11.454,14.466 z"
         transform="translate(51.1934,436.8838)"
         id="path145"
         inkscape:connector-curvature="0"
         style="fill:#ffd203;fill-opacity:1" />
      <path
         d="m 0,0 h -30.054 c -1.647,0 -2.982,-1.271 -2.982,-2.839 0,-1.568 1.335,-2.839 2.982,-2.839 H 0 c 1.646,0 2.982,1.271 2.982,2.839 C 2.982,-1.271 1.646,0 0,0"
         transform="translate(58.6348,442.2881)"
         id="path147"
         inkscape:connector-curvature="0"
         style="fill:#ffd203;fill-opacity:1" />
      <path
         d="M 0,-0.45073895 C -0.161,6.3792611 -1.898,12.727261 -5.132,18.743261 c -8.465,17.328 -34.321,16.914 -28.621,-4.279 2.1,-7.8099999 9.234,-12.3989999 17.711,-13.1859999 -0.612,2.057 -3.978,9.3319999 -1.261,10.7549999 4.344,-0.16 9.739,-7.4639999 11.035,-10.9469999 0.188,-0.50000005 0.135,-1.07800005 0.344,-1.57000005"
         transform="translate(550.9795,605.3916)"
         id="path149"
         inkscape:connector-curvature="0"
         style="fill:#ffd203;fill-opacity:1" />
      <path
         d="M 0,0 C 0.162,6.83 1.898,13.178 5.132,19.194 13.597,36.522 39.453,36.108 33.754,14.915 31.653,7.106 24.519,2.516 16.042,1.729 16.654,3.787 20.02,11.061 17.303,12.484 12.959,12.324 7.565,5.02 6.268,1.537 6.081,1.037 6.133,0.459 5.924,-0.033"
         transform="translate(561.7471,604.9399)"
         id="path151"
         inkscape:connector-curvature="0"
         style="fill:#ffd203;fill-opacity:1" />
      <path
         d="m 0,0 c 8.919,-9.354 14.907,-20.17 12.326,-32.855 -1.425,-6.999 -4.877,-13.48 -7.312,-20.223 -1.522,-4.23 -1.911,-8.649 -1.731,-13.094 h -7.567 c 0.362,4.479 -0.431,8.819 -1.732,13.094 -2.319,6.785 -5.848,13.219 -7.311,20.223 -2.734,13.094 3.683,22.97 12.286,32.814 l 0.526,0.652 z"
         transform="translate(556.8633,671.1123)"
         id="path153"
         inkscape:connector-curvature="0"
         style="fill:#ffd203;fill-opacity:1" />
      <path
         d="m 0,0 c 1.582,-4.314 8.032,-12.214 11.458,-14.466 0.889,-0.584 -4.247,0.337 -6.547,0.827 -3.015,0.643 -6.935,3.77 -6.844,2.666 0.009,-5.053 -1.452,-13.485 -5.257,-17.359 l -0.361,-0.374 -0.373,0.374 c -3.805,4.318 -5.238,11.911 -5.258,17.359 0.092,1.104 -3.828,-2.023 -6.843,-2.666 -2.3,-0.49 -7.436,-1.411 -6.547,-0.827 3.426,2.252 9.872,10.152 11.454,14.466 z"
         transform="translate(563.9199,599.7554)"
         id="path155"
         inkscape:connector-curvature="0"
         style="fill:#ffd203;fill-opacity:1" />
      <path
         d="m 0,0 h -30.054 c -1.646,0 -2.981,-1.271 -2.981,-2.839 0,-1.568 1.335,-2.839 2.981,-2.839 H 0 c 1.646,0 2.982,1.271 2.982,2.839 C 2.982,-1.271 1.646,0 0,0"
         transform="translate(571.3613,605.1597)"
         id="path157"
         inkscape:connector-curvature="0"
         style="fill:#ffd203;fill-opacity:1" />
      <path
         d="M 0,-0.45073895 C -0.162,6.3792611 -1.898,12.727261 -5.132,18.743261 c -8.466,17.328 -34.321,16.914 -28.622,-4.278 2.101,-7.8099999 9.235,-12.3999999 17.712,-13.1869999 -0.612,2.058 -3.978,9.3319999 -1.261,10.7549999 4.344,-0.159 9.738,-7.4639999 11.035,-10.9469999 0.187,-0.50000005 0.135,-1.07800005 0.344,-1.57000005"
         transform="translate(499.707,523.9556)"
         id="path159"
         inkscape:connector-curvature="0"
         style="fill:#ffd203;fill-opacity:1" />
      <path
         d="M 0,0 C 0.161,6.83 1.898,13.178 5.132,19.194 13.597,36.522 39.453,36.108 33.754,14.916 31.653,7.106 24.519,2.516 16.042,1.729 16.654,3.787 20.02,11.061 17.303,12.484 12.959,12.325 7.564,5.021 6.268,1.537 6.08,1.037 6.133,0.459 5.924,-0.033"
         transform="translate(510.4746,523.5039)"
         id="path161"
         inkscape:connector-curvature="0"
         style="fill:#ffd203;fill-opacity:1" />
      <path
         d="M 0,0 C 8.919,-9.354 14.907,-20.17 12.325,-32.855 10.901,-39.854 7.448,-46.336 5.014,-53.078 3.491,-57.308 3.103,-61.727 3.282,-66.172 h -7.566 c 0.362,4.478 -0.432,8.818 -1.732,13.094 -2.319,6.784 -5.848,13.219 -7.311,20.223 -2.734,13.094 3.683,22.969 12.286,32.813 l 0.526,0.653 z"
         transform="translate(505.5908,589.6768)"
         id="path163"
         inkscape:connector-curvature="0"
         style="fill:#ffd203;fill-opacity:1" />
      <path
         d="m 0,0 c 1.582,-4.313 8.032,-12.214 11.458,-14.466 0.889,-0.584 -4.247,0.337 -6.547,0.827 -3.015,0.643 -6.935,3.77 -6.844,2.667 0.008,-5.053 -1.452,-13.486 -5.258,-17.36 l -0.361,-0.374 -0.372,0.374 c -3.805,4.318 -5.239,11.911 -5.258,17.36 0.092,1.103 -3.828,-2.024 -6.844,-2.667 -2.299,-0.49 -7.435,-1.411 -6.547,-0.827 3.427,2.252 9.873,10.153 11.455,14.466 z"
         transform="translate(512.6475,518.3193)"
         id="path165"
         inkscape:connector-curvature="0"
         style="fill:#ffd203;fill-opacity:1" />
      <path
         d="m 0,0 h -30.054 c -1.646,0 -2.982,-1.271 -2.982,-2.839 0,-1.568 1.336,-2.839 2.982,-2.839 H 0 c 1.646,0 2.981,1.271 2.981,2.839 C 2.981,-1.271 1.646,0 0,0"
         transform="translate(520.0889,523.7236)"
         id="path167"
         inkscape:connector-curvature="0"
         style="fill:#ffd203;fill-opacity:1" />
      <path
         d="m 0,-0.08925 c -0.161,6.831 -1.898,13.178 -5.132,19.194 -8.465,17.328 -34.321,16.915 -28.621,-4.278 2.1,-7.81 9.234,-12.4 17.711,-13.187 -0.612,2.058 -3.978,9.333 -1.261,10.755 4.344,-0.159 9.739,-7.463 11.035,-10.947 0.188,-0.5 0.135,-1.078 0.344,-1.57"
         transform="translate(550.9795,442.5195)"
         id="path169"
         inkscape:connector-curvature="0"
         style="fill:#ffd203;fill-opacity:1" />
      <path
         d="M 0,0 C 0.162,6.83 1.898,13.178 5.132,19.194 13.597,36.522 39.453,36.108 33.754,14.915 31.653,7.106 24.519,2.516 16.042,1.729 16.654,3.786 20.02,11.061 17.303,12.484 12.959,12.324 7.565,5.02 6.268,1.537 6.081,1.037 6.133,0.459 5.924,-0.033"
         transform="translate(561.7471,442.0684)"
         id="path171"
         inkscape:connector-curvature="0"
         style="fill:#ffd203;fill-opacity:1" />
      <path
         d="m 0,0 c 8.919,-9.354 14.907,-20.17 12.326,-32.855 -1.425,-6.999 -4.877,-13.48 -7.312,-20.223 -1.522,-4.23 -1.911,-8.648 -1.731,-13.094 h -7.567 c 0.362,4.478 -0.431,8.819 -1.732,13.094 -2.319,6.785 -5.848,13.219 -7.311,20.223 -2.734,13.094 3.683,22.97 12.286,32.814 l 0.526,0.652 z"
         transform="translate(556.8633,508.2407)"
         id="path173"
         inkscape:connector-curvature="0"
         style="fill:#ffd203;fill-opacity:1" />
      <path
         d="m 0,0 c 1.582,-4.314 8.032,-12.214 11.458,-14.466 0.889,-0.584 -4.247,0.337 -6.547,0.827 -3.015,0.643 -6.935,3.77 -6.844,2.666 0.009,-5.053 -1.452,-13.485 -5.257,-17.359 l -0.361,-0.374 -0.373,0.374 c -3.805,4.318 -5.238,11.911 -5.258,17.359 0.092,1.104 -3.828,-2.023 -6.843,-2.666 -2.3,-0.49 -7.436,-1.411 -6.547,-0.827 3.426,2.252 9.872,10.152 11.454,14.466 z"
         transform="translate(563.9199,436.8838)"
         id="path175"
         inkscape:connector-curvature="0"
         style="fill:#ffd203;fill-opacity:1" />
      <path
         d="m 0,0 h -30.054 c -1.646,0 -2.981,-1.271 -2.981,-2.839 0,-1.568 1.335,-2.839 2.981,-2.839 H 0 c 1.646,0 2.982,1.271 2.982,2.839 C 2.982,-1.271 1.646,0 0,0"
         transform="translate(571.3613,442.2881)"
         id="path177"
         inkscape:connector-curvature="0"
         style="fill:#ffd203;fill-opacity:1" />
    </g>
    <path
       d="m 965.5536,297.07772 172.6349,-84.85607 v 84.85607 z M 661.81011,222.42852 V 147.77933 L 834.44502,62.92522 h 151.87222 z m 0,74.6492 476.37839,-234.1525 v 74.64821 L 813.68138,297.07772 Z"
       id="path181"
       inkscape:connector-curvature="0"
       style="fill:#ffd203;fill-opacity:1" />
    <path
       d="M 0,0 V 480 H 800 V 0 Z M 85.330078,85.330078 H 714.66602 V 394.66602 H 85.330078 Z"
       transform="matrix(0.75000002,0,0,-0.75000002,0,720.00002)"
       id="path183"
       inkscape:connector-curvature="0"
       style="fill:#ffffff" />
    <path
       d="M 600.00001,360.00001 V 7.9999995e-7 H 1200 V 360.00001 Z m 63.99772,-63.99756 H 1136.0009 V 64.000488 H 663.99773 Z"
       id="path185"
       inkscape:connector-curvature="0"
       style="fill:#ed2939;fill-opacity:1" />
    <path
       d="M 0,0 V -63.998 H 54 L 117.998,0 Z m -182.001,-63.998 h 91 V 0 h -91 z m -181.999,0 h 91 V 0 h -91 z M -482,0 v -126.998 h 63.998 v 63 L -481.999,0 Z M 54.002,-233 H 118 v 106.002 H 54.002 Z M -482,-233 v -127 l 63.998,64 v 63 z M 0,-296 v -64 h 118 l -64,64 z m -182.001,-64 h 91 v 64 h -91 z M -364,-360 h 91 v 64 h -91 z"
       transform="translate(482,720)"
       id="path187"
       inkscape:connector-curvature="0"
       style="fill:#ed2939;fill-opacity:1" />
    <g
       id="b"
       transform="matrix(0.62140323,0,0,-0.62105661,113.4285,367.15758)"
       style="fill:#ffd203;fill-opacity:1;stroke:#000000;stroke-width:3.01820493">
      <path
         d="m 261.0941,134.08169 c -5.79147,-1.85579 -7.26591,-10.24411 -6.55681,-13.12541 l 9.44301,-0.7827 c -1.29588,3.0922 -2.76456,8.99184 -2.8862,13.90811 z"
         id="path189"
         inkscape:connector-curvature="0"
         style="fill:#ffd203;fill-opacity:1;fill-rule:evenodd;stroke:#000000;stroke-width:3.01820493" />
      <path
         d="m 50.625,27.091797 c -0.323085,-0.01125 -0.644205,-0.01071 -0.964844,0.002 -4.27518,0.168851 -8.276366,2.460919 -10.410156,6.769531 13.69186,-2.060463 10.47104,5.973157 9.1875,10.466797 l 12.125,3.158203 C 62.42968,41.094908 63.896064,33.056891 57.308594,29.105469 55.192607,27.836211 52.886593,27.170556 50.625,27.091797 Z m 26.193359,10.958984 c -1.78478,0.08096 -3.599206,0.577025 -5.248047,1.503907 4.996441,2.55109 5.599692,9.272825 1.388672,15.019531 l 11.570313,5.464843 c 2.11177,-4.481329 3.451013,-11.999831 1.533203,-16.625 -1.53699,-3.706749 -5.317631,-5.541384 -9.244141,-5.363281 z m -57.191406,8.00586 c -4.131567,0.135854 -7.846483,2.127702 -9.384765,6.595703 12.1014,-2.267451 10.931701,3.270407 11.769531,9.755859 L 35.615234,57.552734 C 33.635594,51.454592 28.34238,47.195371 22.53125,46.25 21.555,46.091181 20.580393,46.02529 19.626953,46.056641 Z m 22.527344,70.294919 c -2.39412,3.58578 -4.205938,9.22194 -14.767578,6.32617 5.01699,14.5415 21.517643,8.14414 24.470703,4.89454 z m -9.083985,109.75586 c -8.06681,-0.25381 -15.080909,3.90648 -16.662109,11.77735 6.82748,-1.9053 13.276887,-1.01496 16.654297,3.37109 l 11.826172,-9.48242 c -2.17339,-3.30518 -6.63149,-5.50283 -11.81836,-5.66602 z M 16.78125,252.02148 c -2.09479,-0.0521 -4.434154,0.22571 -6.8085938,1.14844 -6.685776,2.59817 -9.49166358,8.82242 -8.1660156,15.55664 9.2204484,-9.15361 11.5837244,-3.67956 17.4375004,0.63672 l 5.570312,-15.50976 c 0,0 -3.424663,-1.71738 -8.033203,-1.83204 z m 11.203125,25.69727 c 0,0 -16.833731,3.85972 -20.296875,11.99805 -3.693912,8.68065 3.073036,9.69899 5.660156,10.47656 0.34796,-6.35163 7.948741,-8.1308 16.212891,-8.0332 z m 60.644531,9.55078 -15.4375,4.92578 c 3.91139,4.57825 4.689386,7.65654 -2.490234,15.23242 6.48442,2.18351 13.690571,-0.9084 16.957031,-6.96289 2.26203,-4.1927 2.651583,-9.53959 0.970703,-13.19531 z M 60.662109,408.10156 c -8.14857,0.22405 -16.007062,5.09939 -15.763671,11.2461 4.17703,-4.491 13.185659,-1.51316 19.568359,3.36523 3.78472,-4.55518 8.422438,-7.5124 10.673828,-9.76758 -3.04391,-3.05649 -8.764616,-5.00086 -14.478516,-4.84375 z m -9.914062,24.67774 c -3.24446,-0.0621 -7.536908,0.56537 -11.835938,2.76758 -8.90015,4.55914 -8.926447,15.35148 -0.648437,16.29101 -0.21155,-8.05973 7.339931,-7.86002 13.863281,-6.32617 l 3.105469,-12.06836 c -0.96839,-0.34229 -2.537705,-0.62678 -4.484375,-0.66406 z m 11.835937,24.04687 c -5.06897,0.52365 -10.006259,2.56293 -13.412109,7.35547 -4.80728,6.76458 -2.482612,16.32505 3.361328,15.89063 -0.96451,-10.35061 8.721383,-9.26477 16.064453,-10.13868 z m 61.957036,1.0293 -12.25586,7.05273 c 5.4134,3.92848 9.76881,9.71375 7.09765,15.08203 4.98536,-0.534 8.90081,-3.64845 9.29492,-8.41992 0.46438,-5.62225 -2.08329,-11.04831 -4.13671,-13.71484 z m 228.48437,16.2207 -9.19922,11.94922 c 7.58906,0.15048 10.55724,5.47846 7.63086,10.80273 5.30478,0.50769 10.13101,-3.5637 10.52735,-8.87109 0.51287,-6.86816 -3.85885,-11.10418 -8.95899,-13.88086 z m -77.74609,1.42774 c -3.05053,0.0754 -5.99645,0.73027 -8.82618,2.37109 -6.4583,3.74484 -9.00727,15.05231 0.65821,18.29492 0.2733,-4.58066 1.68953,-9.69248 11.8125,-8.23242 l 4.14453,-11.66016 c -2.2021,-0.41372 -4.36265,-0.71539 -6.47461,-0.77148 -0.43999,-0.0117 -0.87866,-0.0127 -1.31445,-0.002 z m 13.98047,21.91015 c -4.88963,0.66482 -11.61634,3.50092 -14.60547,8 -4.7442,7.14072 -2.00338,15.80216 2.20117,18.63867 1.03179,-8.93071 2.63413,-11.41578 14.78515,-15.6289 z m 16.53125,10.72266 c -3.84074,2.97879 -7.09162,6.79457 -7.04493,12.42383 0.0879,10.60336 8.85751,10.47149 14.29688,8.62695 -6.08335,-3.17144 -2.63662,-5.94876 1.68945,-9.50195 2.24818,-1.84652 2.87314,-4.03785 2.60352,-6.43946 z"
         transform="translate(84.207502,35.362574)"
         id="path191"
         inkscape:connector-curvature="0"
         style="fill:#ffd203;fill-opacity:1;fill-rule:evenodd;stroke:#000000;stroke-width:3.01820493" />
      <path
         d="m 148.17541,182.83903 c -0.2979,6.03061 2.45866,13.29996 -2.41764,18.7061 -2.22617,2.46805 -5.81181,3.91616 -10.20291,3.78527 -4.15552,-0.12388 -10.09898,-2.69209 -13.63408,-2.52332 -4.93404,0.23554 -7.29338,4.22966 -7.20791,8.15753 2.08571,-1.53689 4.21722,-2.67882 7.20612,-2.64117 3.92352,0.0472 8.40808,3.84753 15.85406,3.33466 7.12519,-0.49079 13.26578,-4.90304 16.38907,-11.35678 3.183,-6.57711 1.04631,-11.56597 4.53054,-17.56786 0.53844,4.43245 1.49521,8.51008 3.75928,13.05693 2.93028,5.88476 8.60368,9.72751 10.51457,22.85759 0.77684,5.33784 -0.24599,12.39408 -4.234,16.41316 5.74984,2.47931 12.38804,-0.94062 14.7645,-5.58788 3.83241,8.15698 8.93158,15.63085 15.99567,19.90313 9.09788,5.50231 18.19644,8.49943 28.72254,9.30023 l 19.57093,-16.76945 11.09065,-36.65688 c -5.70289,-1.95956 -12.28947,-4.60705 -17.19121,-6.4613 -5.57464,-2.1088 -11.64929,-3.33904 -16.48294,-7.70885 -5.83679,-5.27669 -11.24199,-12.41625 -16.63459,-18.55756 -10.69154,-12.17597 -14.36944,-11.83132 -17.97815,-16.09224 -3.72837,-4.40223 -5.33675,-10.46358 -15.85763,-21.41776 -2.89651,-3.0158 -6.92426,-4.22441 -9.6025,-7.14993 -2.61089,-2.85195 -3.61584,-6.96181 -3.32959,-10.48464 0.80671,-9.92822 6.58876,-11.78268 8.27799,-16.97552 2.50008,-7.685407 -4.6804,-13.401349 -12.09376,-11.620625 -5.45951,1.3114 -1.95491,8.077111 -2.45076,10.644375 -0.7294,3.77649 -3.91253,7.05587 -4.00812,10.00743 -3.24604,-1.35766 -3.8887,-6.50033 -3.60113,-11.435259 0.36199,-6.212128 1.74677,-14.498726 -4.25322,-18.358837 -4.65225,-2.993041 -12.30975,-2.878732 -14.28189,2.978172 -2.29184,6.806405 5.70864,7.823526 6.23703,9.321941 0.62857,1.782539 0.93686,12.689433 0.98795,14.493423 -2.08409,-0.93999 -3.86752,-2.32677 -6.3022,-3.89612 -6.56794,-4.233576 -6.42345,-10.568929 -12.80146,-11.217239 -5.87598,-0.59728 -13.39716,3.545562 -11.29421,9.734709 2.52874,7.44234 11.17733,5.98003 13.06694,6.67492 2.14676,0.78946 17.54127,8.8708 17.02272,33.29154 -0.0701,3.30171 -9.33059,3.0738 -10.30003,10.17426 -0.96378,7.05898 3.31618,12.64084 10.02015,12.26036 5.01586,-0.28469 8.12404,-3.69993 9.41062,-7.06819 1.4237,8.39055 5.65642,14.19834 5.88195,17.20174 0.16383,2.18181 -2.96806,5.7014 -3.14335,9.24994 z"
         id="path193"
         inkscape:connector-curvature="0"
         style="fill:#ffd203;fill-opacity:1;fill-rule:evenodd;stroke:#000000;stroke-width:3.01820493" />
      <path
         d="m 256.98567,338.5388 c -6.08979,3.90294 -17.78099,7.2387 -27.00236,12.51027 -17.06074,9.75309 -25.28742,16.97428 -25.99843,24.52372 -0.0725,0.76955 -2.29059,8.41499 -12.2065,15.47787 -5.93067,4.2243 -13.67868,7.47414 -22.17944,6.95757 -5.65324,-0.34353 -13.5356,-2.22042 -16.04563,-8.99929 -4.14465,-11.1936 7.28123,-15.09232 5.70831,-26.39149 -0.71152,-5.11121 -5.45001,-6.95894 -6.97055,-6.42405 2.17249,2.27702 3.30076,5.42016 2.7047,8.56937 -1.01808,5.37882 -5.45155,8.64406 -7.82546,14.72857 -2.28933,5.86773 -2.28273,15.03232 5.59113,20.83705 7.36498,5.42959 20.16662,7.57628 32.33502,3.98033 12.13075,-3.58482 16.52484,-8.75756 20.5694,-13.44382 -0.95202,5.42114 0.56457,7.5211 -0.58801,11.60044 -2.17742,7.70655 -8.43259,11.69682 -15.60259,14.53134 8.73111,5.38831 17.74024,0.91504 21.21316,-4.97353 3.26942,-5.54355 5.10206,10.61802 2.32736,20.76 -1.85894,6.79481 -5.52172,12.57609 -10.68488,16.52864 -11.56502,8.85335 -21.3876,9.50693 -32.31398,6.61857 -6.29906,-1.66515 -4.00201,-8.16133 -13.08794,-9.25209 -4.06056,-0.48746 -9.31197,5.27277 -9.37602,9.6254 -0.0994,6.94375 18.07277,8.33687 19.71975,10.09762 -4.16128,2.82562 -10.55231,4.14417 -16.22316,3.87257 -2.08841,-0.10003 -7.5909,-4.68344 -12.25501,-2.32666 -2.82044,1.42517 -8.12799,7.30182 -3.60667,12.95706 4.73563,5.92329 11.78846,0.51456 15.36033,-0.6546 2.90794,-0.95185 16.20615,-0.27834 21.931,-1.40334 -2.13973,3.56412 -7.45511,6.7635 -12.9384,8.26708 -6.5249,1.78919 -10.67941,-0.005 -13.51094,4.2535 -4.04088,6.07755 1.11536,15.31865 7.02418,14.87899 11.05647,-0.81226 9.69773,-12.63674 21.552,-14.56641 4.98035,-0.81072 10.72363,-0.76478 14.24607,0.0467 4.95583,1.14168 -1.39075,5.72215 4.05604,8.8032 6.46412,3.65651 16.64601,-3.2013 16.76855,-6.11285 0.21987,-5.22425 -3.53523,-5.58401 -5.90145,-7.78671 7.46961,0.58383 13.58573,0.3118 18.7873,-2.76067 0.0521,3.67751 -1.8608,6.28396 -1.27023,10.132 0.5636,3.67234 3.23673,5.10464 6.08358,4.76577 -0.6759,-8.58602 5.57336,-10.41009 9.52558,-15.64546 1.96693,-2.60551 3.2567,-5.07595 4.55876,-7.64007 0.64437,6.57339 1.2776,15.86485 14.14762,12.84616 -5.73632,-3.45419 -6.34808,-10.82348 -4.92548,-18.07908 0.50243,-2.56248 1.84214,-4.80271 3.98339,-6.43972 3.60133,-2.75324 10.32428,3.31943 19.42286,-2.40745 -3.8676,-1.13583 -4.96373,-3.35649 -4.63853,-5.65959 0.42296,-2.99553 2.02123,-5.62945 2.10564,-7.94364 0.16764,-4.59513 -2.71627,-8.2718 -4.97309,-11.47132 -3.78838,-5.3708 -3.48268,-15.04105 -3.1245,-22.73391 0.50117,-10.76346 3.37201,-18.64781 18.60583,-29.25069 14.20675,-9.888 41.18826,-4.95052 41.33181,-7.07631 3.37099,-49.81794 -11.87176,-56.18875 -24.88628,-63.80674 -6.25473,-3.66119 -8.56698,-4.73049 -22.76492,7.25477 -5.80358,4.89912 -10.22477,12.3554 -18.75892,17.82494 z"
         id="path195"
         inkscape:connector-curvature="0"
         style="fill:#ffd203;fill-opacity:1;fill-rule:evenodd;stroke:#000000;stroke-width:3.01820493" />
      <path
         d="m 295.29784,314.85151 c 9.5337,9.02099 15.85047,26.11888 15.0766,36.81701 -9.47147,16.02542 -6.9274,25.21862 2.22596,25.70115 7.46908,0.39911 9.04456,-7.9402 8.96712,-18.12859 -0.0691,-9.08984 -1.18978,-16.66778 -4.84111,-24.54754 -4.98223,-10.75195 -13.21758,-15.79168 -21.42857,-19.84203 z"
         id="path197"
         inkscape:connector-curvature="0"
         style="fill:#ffd203;fill-opacity:1;fill-rule:evenodd;stroke:#000000;stroke-width:3.01820493" />
      <path
         d="m 420.74198,373.36146 c 6.8076,-0.45785 13.98324,-8.18 26.0104,4.62952 2.31128,-4.96616 1.90896,-11.28603 -3.5862,-14.94795 7.81762,-5.35321 14.92244,-15.54245 15.57914,-25.92792 0.79324,-12.54665 5.6554,-28.31937 15.86804,-32.3329 5.41824,-2.1294 10.63576,1.67013 10.33312,8.40021 -0.65696,14.6086 -14.26112,18.59788 -15.11056,34.93665 -0.4684,9.00805 5.4028,18.16363 15.61704,12.78868 -5.8728,-2.53266 -9.76696,-6.32758 -9.47248,-11.03599 0.88496,-14.14741 18.49088,-25.71516 19.63504,-39.08323 1.34584,-15.7243 -7.64984,-20.4597 -14.026,-20.90682 -8.5376,-0.59868 -18.782,5.01959 -24.78786,15.81125 -3.70153,-15.40482 6.7625,-30.73958 18.33698,-38.23787 9.69824,-6.28281 20.75232,-11.84611 26.01608,-20.67959 5.93472,-9.95955 4.38272,-22.26637 -2.10944,-28.18632 -0.17704,5.87284 -4.04008,15.82601 -16.18768,22.43979 -14.74616,8.02865 -29.0774,12.78246 -40.59379,34.90029 -3.50758,-38.96884 37.99115,-55.22857 55.08835,-67.74737 21.22008,-15.53767 13.34912,-48.04253 6.68272,-52.34031 0.51632,5.46332 0.95736,14.0259 -5.31376,24.32271 -7.25376,11.91034 -20.31688,17.55385 -36.02072,26.70829 -15.61755,9.10417 -28.41566,23.34464 -34.2851,38.09899 -1.96543,-9.80979 4.97783,-24.26417 13.92297,-34.48857 9.26508,-10.59007 20.41581,-19.9497 26.74925,-25.5937 12.61488,-11.24171 31.01216,-26.82587 32.13168,-60.0182 0.79208,-23.34406 -11.22168,-39.376753 -27.66208,-45.782967 -9.64184,-3.756959 -23.64509,-4.005772 -33.22373,-1.60626 -4.80577,1.203864 -9.58197,2.990433 -14.03783,5.820875 -3.13734,1.992886 -8.66247,0.952766 -8.24866,-4.617018 0.4876,-6.563484 9.82908,-7.280063 10.63335,-14.977684 0.66345,-6.35007 -4.27787,-11.318421 -9.43515,-13.708456 1.37202,3.845193 2.67554,8.378201 0.1148,12.932176 -3.33759,5.935537 -11.243,5.509813 -11.99348,16.601448 -0.37063,5.547503 3.47891,11.694776 8.75833,13.112738 0.63075,0.364195 -0.87989,1.174885 -1.30753,1.793294 -5.58548,8.077384 -6.36879,18.598354 -5.60081,25.861884 1.28261,12.12964 5.59557,16.30857 5.93145,27.56289 0.10476,3.50788 0.35296,13.6245 -3.70315,20.39868 -4.99993,8.35052 -9.37446,11.71928 -14.27053,14.43291 7.01002,0.26403 14.45151,-1.54578 19.63769,-3.70756 9.58614,-3.99583 17.50197,-16.15335 18.9373,-24.11824 0.95573,-5.30341 0.58717,-10.22965 -0.2266,-15.01741 4.77858,1.4835 13.03595,1.50582 18.71285,-2.46022 5.8293,-4.07251 8.89938,-12.63332 4.35503,-19.9189 -1.31811,7.53163 -6.26108,10.37524 -13.77595,10.86152 -7.15124,0.46278 -12.98464,-3.86319 -13.80393,-11.61752 -1.20763,-11.42906 8.32549,-20.016054 21.7126,-20.509725 17.73411,-0.653974 27.69755,12.124445 27.18243,29.183625 -0.51632,17.09929 -8.6632,29.87956 -20.37226,40.3421 -10.05968,8.98875 -20.66324,17.74125 -31.09387,28.61965 -8.1352,8.48441 -24.12997,26.43959 -24.09905,49.71579 0.0226,17.24841 5.38814,31.06246 13.55145,43.42527 8.16323,12.36289 13.07447,22.70983 16.66653,32.36473 4.3175,11.60519 2.83129,27.62658 -8.40007,32.38994 -11.63347,4.93395 -27.75966,-1.69798 -33.80455,-16.87695 -4.22934,-10.62006 -10.61576,-21.7981 -16.44884,-32.39221 -6.22875,-11.31272 -17.75073,-21.64694 -21.96976,-36.57414 -3.74,-13.23242 -3.29092,-28.6431 -2.56092,-36.44574 2.0003,-21.38015 -5.121,-41.2776 -25.47917,-47.63529 -20.35816,-6.35769 -37.28725,-0.66508 -48.28435,9.43767 -11.1506,10.24378 -12.99216,23.70654 -23.95336,35.66103 -10.50879,11.46108 -29.00912,15.13374 -41.64434,22.22178 -12.5675,7.05005 -22.76335,16.81049 -33.7444,24.58673 -2.97209,2.1047 -8.3737,6.2958 -20.41038,6.35113 -4.28548,0.0197 -9.95034,-1.09093 -14.75556,-3.64309 -8.2855,-4.4006 -6.02587,-8.86068 -11.75524,-10.23656 -7.47256,-1.79452 -14.64454,4.68248 -14.39948,10.7568 0.28816,7.24227 7.78469,4.25342 11.26342,4.51411 5.14798,0.38578 1.8661,4.76412 14.88218,8.68163 -5.86372,1.8751 -12.96944,2.25687 -19.78192,1.65361 -4.57155,-0.40483 -8.10097,-4.9843 -14.17574,-3.67495 -7.03534,1.51639 -12.114064,10.42271 -6.61248,15.96552 3.43692,3.46268 11.48491,-0.40402 14.94645,-0.64453 1.86877,-0.12985 11.28748,2.09138 18.30201,2.00596 -2.17614,2.23722 -5.45696,4.10317 -9.91479,4.48437 -5.36557,0.45882 -8.33805,-0.39704 -11.99239,0.91482 -9.11892,3.27354 -7.53397,17.36082 3.0565,17.02107 5.04447,-0.16033 9.35852,-2.12877 11.59045,-4.8189 3.00982,-3.62771 8.04852,-9.39144 20.07669,-8.76483 11.836,0.61661 4.85409,8.25892 5.99534,11.25513 1.98716,5.21699 14.63904,2.73167 18.45746,-2.23925 2.18914,-2.84988 1.16186,-6.29708 -0.60108,-8.11315 5.5807,0.36719 10.66033,0.17034 15.37354,-0.74558 0.4022,1.35496 -0.77685,5.8495 -1.61368,7.62408 6.05275,-0.48205 7.7234,-4.14205 12.40909,-6.35447 4.24931,-2.00636 10.54945,-4.29821 16.87747,-10.27501 0.0611,3.64634 -1.72107,7.54879 -1.61229,12.29639 0.11405,4.97762 4.16375,8.00215 8.39136,8.41493 -0.56671,-9.95491 0.14688,-16.51824 6.9447,-20.52156 3.31324,-1.95121 7.51386,-3.51111 11.05859,-4.85701 5.70055,-2.16446 10.43618,-5.83786 13.41481,-9.69014 0.84103,-1.0877 6.31663,-6.39092 7.56263,-4.99776 1.44448,2.48477 2.77882,5.03716 8.08013,10.16415 5.0715,4.90473 10.4913,8.84109 16.52324,12.25072 6.91461,3.90855 15.34088,8.88583 20.06921,12.35963 5.34294,3.92532 9.40003,8.80897 12.11792,16.33683 2.59028,7.17445 3.77543,15.91626 3.36662,23.6558 -0.30623,5.7972 -0.72727,10.68523 -0.0965,15.9975 0.68936,5.80604 5.06111,8.19086 4.83774,13.58764 -0.0926,2.23685 -5.72014,4.91805 -5.90262,11.26158 -0.24782,8.61482 3.9934,12.17771 3.80436,17.57311 -0.15226,4.34624 -3.18543,7.65569 -6.59925,9.21535 3.45969,5.22757 12.29081,1.03793 14.59857,-5.30278 3.40193,4.29459 5.84512,11.07031 5.49732,18.78418 -0.91782,10.38489 -8.18728,16.39691 -20.65043,22.29015 -8.49209,4.01553 -24.27671,13.98162 -24.84219,26.05501 -0.24206,5.25314 0.92949,9.29078 3.87403,12.50504 -0.81235,-4.91164 -0.144,-10.00585 3.14545,-15.1126 7.71322,-11.97451 22.97574,-15.69367 34.40784,-22.93982 10.67542,-6.76653 15.00856,-15.41807 15.41128,-24.97177 0.3209,-7.50064 -2.67703,-18.73634 -2.69294,-21.38598 3.26861,4.4101 6.01948,7.61905 9.90861,10.46896 4.76439,3.49129 10.62447,5.78771 15.44047,8.36144 5.74838,3.07202 10.66243,7.48138 15.16312,11.43608 3.66327,3.21886 8.20131,7.43577 10.85388,11.8123 0.63632,1.04989 2.012,5.80889 1.95212,10.64612 -0.0359,2.81791 -0.14681,9.3081 -0.69916,14.00955 -0.70256,5.98001 -2.81548,12.61227 -6.82784,18.09019 -2.43674,3.32678 -5.9425,5.90947 -10.17338,7.49285 -5.46978,2.04701 -9.04383,-0.62869 -13.03218,-0.38945 -6.45607,0.38726 -9.3537,8.61774 -5.7618,13.34286 3.05656,4.02089 7.86549,0.22273 11.29761,-1.67231 3.15695,-1.74309 9.24831,-1.88624 15.23203,-4.10357 -8.03848,12.47404 -11.72656,8.37928 -15.37606,11.69844 -4.38342,3.98662 -2.00834,15.91755 4.10292,14.53068 6.52527,-1.4808 5.08234,-6.47032 5.99522,-7.22148 1.99832,-1.64428 8.73388,-5.06659 14.65897,-12.32994 0,0 0.0355,5.25901 -1.20919,8.06674 -1.52315,3.43589 -7.86558,4.413 -8.34227,9.56052 -0.65931,7.11952 7.08134,8.94924 12.55137,6.45442 9.13443,-4.1661 1.72261,-12.91417 4.63784,-16.61246 3.06945,-3.89396 5.35197,0.16272 14.8978,-13.14268 1.04332,1.9992 3.53317,3.10481 6.18805,2.7769 6.90878,-0.85331 14.12051,-9.47938 9.21789,-14.64462 -2.70473,-2.84964 -11.52459,0.15068 -9.29414,-2.23405 3.93299,-4.20504 7.08621,-13.56863 8.10032,-16.48193 1.87996,3.74131 4.18281,8.21429 10.85353,7.30314 -4.93716,-10.75286 2.71807,-10.26508 3.04351,-18.04298 0.0928,-2.21848 -0.83657,-4.84874 -1.95748,-6.61116 7.4796,3.8753 22.6605,5.54178 21.26882,-7.31356 -7.81488,5.83482 -12.75051,2.62017 -17.94762,-0.65782 -3.57276,-2.25345 -7.5933,-5.87988 -7.26836,-12.67087 0.34257,-7.25839 5.18136,-5.3516 5.87778,-13.39489 0.22754,-2.62812 -0.39921,-5.8884 -2.6397,-7.06926 -3.44851,-1.81756 -7.78431,0.53323 -7.03901,-5.38448 0.39527,-3.1385 9.31065,-8.9647 13.66147,-11.51252 -2.83259,-0.23981 -8.31165,0.0367 -12.39354,1.34581 -3.44474,1.10477 -8.98329,4.60355 -14.43061,3.98526 -3.36959,-0.38246 -7.80434,-4.18287 -11.8936,-8.47297 -5.59945,-5.87445 -10.25484,-13.36751 -13.28227,-22.18023 -2.4016,-6.99091 -3.64182,-19.76068 -1.75842,-19.46557 6.92702,2.19245 13.1923,5.19301 20.96922,4.66996 z"
         id="path199"
         inkscape:connector-curvature="0"
         style="fill:#ffd203;fill-opacity:1;fill-rule:evenodd;stroke:#000000;stroke-width:3.01820493" />
      <path
         d="m 322.79955,145.07633 c -8.60049,0.21967 -16.89543,0.44427 -24.11021,-1.49818 -6.72063,-1.80941 -16.18148,-0.86556 -23.42776,2.15325 -11.65738,4.85647 -19.11222,8.41495 -31.82484,8.62385 -10.70536,0.17592 -14.80639,-4.71866 -14.59999,-14.67483 3.16228,5.0265 7.28453,6.8437 10.9082,6.85964 4.66187,0.0205 12.63503,-1.84489 18.52885,-5.15215 30.51268,-17.12196 53.09478,-14.05997 64.52575,3.68842 z"
         id="path201"
         inkscape:connector-curvature="0"
         style="fill:#ffd203;fill-opacity:1;fill-rule:evenodd;stroke:#000000;stroke-width:3.01820493" />
      <path
         d="m 267.7479,152.68818 c -0.23412,3.04665 1.16935,6.67152 2.87083,8.75893 l 6.26737,-2.49217 c -3.57835,-1.30592 -6.93256,-3.53373 -9.1382,-6.26676 z"
         id="path203"
         inkscape:connector-curvature="0"
         style="fill:#ffd203;fill-opacity:1;fill-rule:evenodd;stroke:#000000;stroke-width:3.01820493" />
      <path
         d="m 371.21891,274.33981 c -3.63616,-3.97595 -4.20247,-10.72779 -3.31996,-16.50133 1.20339,-7.8727 5.73826,-14.84059 6.23408,-23.44866 0.57067,-10.06872 -4.70956,-11.67356 -4.67522,-16.59978 5.17561,6.62108 17.35274,11.336 19.81597,0.21996 -6.14456,0.0686 -12.18907,-3.0952 -14.98812,-8.43038 -5.04079,-9.60805 3.0348,-14.43039 2.92528,-24.46636 -0.12744,-11.8394 -5.83342,-13.88516 -6.86476,-18.08508 5.23451,0.76199 11.27821,0.48552 11.18568,-5.81476 -2.93974,1.63153 -6.25725,1.31624 -8.74707,-1.81528 -2.98581,-3.75533 -1.92674,-9.46094 -3.40257,-13.8138 -2.74041,-8.08259 -6.46819,-7.14481 -7.83556,-11.44758 5.68115,1.86232 12.76692,1.40767 11.63179,-7.08935 -2.20427,1.96248 -5.34498,2.65992 -8.23184,1.42069 -5.19211,-2.22879 -3.52943,-8.28023 -6.091,-13.20018 -1.85522,-3.56326 -5.59728,-5.76113 -6.43645,-8.98904 4.7476,0.54446 10.23477,0.58781 9.45908,-5.02715 -2.21438,1.4199 -5.2207,0.83551 -7.32013,-0.99591 -9.82575,-8.57145 -16.96093,-18.221373 -26.95175,-23.210268 -8.09955,-4.044497 -27.53698,-4.672789 -42.31758,-3.313703 -10.89316,1.001633 -19.34832,7.067696 -25.45208,11.473622 -5.31974,3.839979 -1.25957,6.28395 0.67207,8.879728 -5.02663,0.146523 -10.30155,1.670205 -14.69103,4.19817 -2.53222,1.458337 -5.69431,4.278621 -5.1786,5.749411 0.29804,0.85002 3.58105,-0.32369 5.05897,-1.61435 0.41263,3.41062 0.0318,7.44174 0.67117,10.94791 0.84085,4.61132 4.13907,8.44834 8.0567,8.833 10.38869,1.02004 19.4839,-0.90581 28.15755,-5.82908 11.74339,-6.66571 16.74969,-0.20789 18.90806,7.25308 2.17606,7.52216 1.10388,17.41749 -4.89261,24.42164 -3.11311,3.63623 -8.96455,9.39156 -15.40416,10.08388 -3.61452,0.38859 -7.35386,-0.86851 -10.28948,0.99212 -1.49673,0.94864 -1.36662,4.58951 -1.40806,7.55374 -0.0324,2.31386 1.89129,3.28746 4.37699,3.50355 5.76187,0.50091 5.20817,6.51962 8.66362,6.93667 -0.0101,-1.55 0.53093,-7.86728 1.88934,-8.11503 5.45974,-0.99577 17.82535,-4.48181 17.75291,-2.34988 -0.1855,5.3629 -12.97448,19.13555 -23.97763,19.74035 -6.15127,0.3381 -19.32559,-2.50868 -26.90825,-1.91156 -15.89879,1.24096 -24.0994,-0.009 -24.27496,-11.80689 -13.70286,10.44207 -0.41512,21.02125 12.89547,26.72071 -4.4644,0.0723 -9.25155,1.14191 -14.41604,2.81956 -7.6738,2.49278 -16.41464,0.49289 -22.44345,-4.96753 0.50846,19.00014 5.47419,29.0394 15.8261,33.71717 12.30163,5.55879 19.8832,3.08788 27.68272,3.29605 -5.88819,4.22165 -12.04724,11.92144 -17.07375,18.16743 -5.64782,7.01802 -14.41539,13.28069 -25.06249,13.48325 5.74028,8.32916 14.99901,12.56877 25.51747,12.75811 14.19297,0.25802 25.1358,-5.2541 33.68466,-13.6164 -0.28951,9.11278 -8.97024,13.61576 -9.1422,24.60333 -0.15365,9.81864 5.46127,17.78262 15.42757,18.61396 -4.94154,-14.9571 17.24038,-22.66859 25.8623,-27.23265 8.15941,-4.31922 15.02143,-9.71544 20.17096,-17.77925 2.27399,8.93812 -8.88267,17.05111 -1.37227,29.56367 5.05031,8.41396 14.83049,11.01093 24.85395,9.56454 -7.04672,-3.39664 -9.85378,-12.0941 -6.56321,-20.68333 4.72525,-12.33415 12.60485,-14.08366 19.02673,-28.55501 1.70365,-3.83906 2.40406,-9.89684 2.83351,-15.65585 4.40015,5.82673 3.17654,11.87196 2.67147,17.10813 -0.94882,9.83655 1.07594,22.56321 13.82011,19.74199 z"
         id="path205"
         inkscape:connector-curvature="0"
         style="fill:#ffd203;fill-opacity:1;fill-rule:evenodd;stroke:#000000;stroke-width:3.01820493" />
      <path
         d="m 310.54156,154.07498 c 0.2761,2.89831 0.0667,5.63248 -0.55631,8.44275 m -13.97096,-53.91724 c 1.41881,0.91182 4.77849,3.54499 7.92383,3.38315 6.78586,-0.34916 10.2477,-0.66206 12.66711,0.8177 2.87115,1.75604 3.13569,6.2858 6.63979,13.01215 m 4.20636,-29.703625 c 1.27848,2.455605 2.1013,5.328415 2.66092,8.084675 m -4.76608,-10.891557 c 1.69948,-3.298504 4.48685,-5.734431 8.13433,-5.809397 6.56117,-0.134849 7.82926,12.541054 4.50059,18.391034 M 264.29652,95.127456 c 2.26087,-4.842288 7.01334,-7.863935 12.34466,-7.63387 7.67904,0.327097 4.1803,7.909699 17.41226,6.602128 m -24.0011,1.230219 c 5.03954,-2.559808 7.51054,0.05287 7.87894,3.083865 0.32822,2.700292 -2.5679,6.321882 -7.99275,3.228022"
         id="path207"
         inkscape:connector-curvature="0"
         style="fill:#ffd203;fill-opacity:1;fill-rule:evenodd;stroke:#000000;stroke-width:3.01820493;stroke-linecap:round" />
      <path
         d="m 265.22754,81.469705 c 23.18192,-3.963704 46.36384,-4.014888 69.54568,0 0.28568,-3.659392 1.54424,-8.597864 3.3048,-12.636544 3.0716,-7.046032 7.02144,-14.45032 11.0492,-20.771 -3.072,-0.129136 -7.11064,2.383536 -10.078,7.441848 -1.1872,-2.261016 -6.10608,-3.961472 -9.26608,-0.950056 2.6672,2.903536 6.61928,6.470016 3.96376,10.537816 -1.9016,2.912952 -5.46264,2.410576 -7.85544,0.945 -2.14664,-1.314872 -4.1324,-4.350912 -4.83448,-8.848864 -2.92792,4.978144 -6.27256,7.271696 -9.2876,7.347888 -5.03496,0.12724 -7.52672,-1.55636 -7.52792,-4.323896 -0.002,-4.857856 5.50408,-6.6818 9.26568,-7.86276 -1.23088,-4.18796 -6.34104,-5.174768 -8.49968,-3.810272 -0.0406,-5.864304 -2.28184,-10.059656 -5.00704,-11.483816 -2.7252,1.42416 -4.9664,5.619512 -5.00704,11.483816 -2.15872,-1.364496 -7.2688,-0.377688 -8.49976,3.810272 3.7616,1.18096 9.26792,3.004904 9.26576,7.86276 -0.001,2.767536 -2.49304,4.451136 -7.52792,4.323896 -3.01504,-0.07619 -6.35976,-2.369744 -9.2876,-7.347888 -0.70216,4.497952 -2.68784,7.533992 -4.83456,8.848864 -2.39272,1.465576 -5.95384,1.967952 -7.85544,-0.945 -2.65552,-4.0678 1.29664,-7.63428 3.96376,-10.537816 -3.15992,-3.011416 -8.07888,-1.31096 -9.26608,0.950056 -2.96736,-5.058312 -7.006,-7.570984 -10.07792,-7.441848 4.02776,6.32068 7.9776,13.724968 11.0492,20.771 1.76056,4.03868 3.01904,8.977152 3.30472,12.636544 z"
         id="path209"
         inkscape:connector-curvature="0"
         style="fill:#ffd203;fill-opacity:1;fill-rule:evenodd;stroke:#000000;stroke-width:3.01820493;stroke-linecap:round" />
    </g>
    <use
       height="100%"
       transform="translate(599.99976,359.79848)"
       width="100%"
       xlink:href="#b"
       id="use212"
       style="fill:#fedd00;stroke-width:1.00028002"
       x="0"
       y="0" />
  </g>
</svg>
